if (_typeface_js && _typeface_js.loadFace) _typeface_js.loadFace({"glyphs":{"¦":{"x_min":56,"x_max":876,"ha":930,"o":"m 249 964 l 249 0 l 56 0 l 56 1042 l 876 1042 l 876 0 l 684 0 l 684 964 l 249 964 "},"Á":{"x_min":56,"x_max":864,"ha":920,"o":"m 56 0 l 56 1042 l 232 1042 l 771 322 l 771 1042 l 864 1042 l 864 0 l 771 0 l 148 830 l 148 0 l 56 0 "},"Κ":{"x_min":56,"x_max":794.84375,"ha":821,"o":"m 260 522 l 643 1042 l 762 1042 l 437 596 l 794 0 l 567 0 l 260 522 m 56 0 l 56 1042 l 249 1042 l 249 0 l 56 0 "},"Î":{"x_min":16.890625,"x_max":997,"ha":1037,"o":"m 353 0 l 353 1042 l 997 1042 l 997 964 l 547 964 l 547 582 l 965 582 l 965 504 l 547 504 l 547 78 l 997 78 l 997 0 l 353 0 m 87 781 l 16 781 l 179 1053 l 297 1053 l 87 781 "},"e":{"x_min":119,"x_max":640,"ha":701,"o":"m 119 632 q 149 744 119 714 q 263 771 178 771 l 631 771 l 631 703 l 369 703 q 313 694 327 703 q 290 641 290 679 l 290 447 l 570 447 l 570 372 l 290 372 l 290 128 q 317 73 290 86 q 380 67 334 67 l 640 67 l 640 0 l 235 0 q 138 37 160 0 q 119 139 119 65 l 119 632 "},"ό":{"x_min":56,"x_max":827,"ha":884,"o":"m 440 31 q 607 159 550 31 q 648 383 648 256 q 607 606 648 509 q 440 736 550 736 q 275 606 331 736 q 233 383 233 511 q 275 161 233 256 q 440 31 331 31 m 464 -25 q 169 95 286 -25 q 56 394 56 215 q 150 674 56 566 q 417 793 250 793 q 711 673 596 793 q 827 373 827 556 q 732 91 827 199 q 464 -25 633 -25 m 435 843 l 375 843 l 514 1075 l 614 1075 l 435 843 "},"»":{"x_min":56,"x_max":1055,"ha":1109,"o":"m 56 0 l 56 1042 l 274 1042 l 567 329 l 850 1042 l 1055 1042 l 1055 0 l 866 0 l 866 837 l 514 -37 l 145 837 l 145 0 l 56 0 "},"ò":{"x_min":119,"x_max":816,"ha":872,"o":"m 290 66 q 407 58 356 58 q 641 341 641 58 q 369 703 641 703 l 290 703 l 290 66 m 290 0 l 290 -313 l 119 -313 l 119 771 l 388 771 q 692 668 574 771 q 816 376 816 559 q 698 92 816 199 q 406 -9 584 -9 q 346 -4 385 -9 q 290 0 309 0 "},"^":{"x_min":329.171875,"x_max":1265.28125,"ha":1596,"o":"m 859 1137 l 1265 702 l 1141 702 l 797 1043 l 454 702 l 329 702 l 733 1137 l 859 1137 "},"«":{"x_min":21,"x_max":450,"ha":469,"o":"m 331 0 l 139 0 l 139 1042 l 331 1042 l 331 0 m 101 1248 q 160 1224 136 1248 q 184 1167 184 1200 q 160 1108 184 1135 q 101 1085 133 1085 q 44 1108 68 1085 q 21 1167 21 1132 q 44 1224 21 1202 q 101 1248 66 1248 m 368 1248 q 426 1224 402 1248 q 450 1167 450 1200 q 426 1108 450 1135 q 367 1085 399 1085 q 310 1108 334 1085 q 287 1167 287 1132 q 311 1224 287 1202 q 368 1248 333 1248 "},"í":{"x_min":128,"x_max":904,"ha":1033,"o":"m 128 0 l 128 661 q 255 793 128 793 q 400 666 361 793 l 521 269 l 636 685 q 773 793 665 793 q 904 649 904 793 l 904 0 l 739 0 l 739 656 q 722 672 734 670 q 708 666 716 672 l 701 649 l 700 648 l 530 43 q 507 -8 523 31 q 473 -25 492 -25 q 415 29 432 -25 l 233 638 q 217 672 225 672 q 202 641 202 666 l 202 0 l 128 0 "},"µ":{"x_min":54,"x_max":796,"ha":835,"o":"m 247 514 l 247 67 l 370 67 q 608 266 608 67 q 340 514 608 514 l 247 514 m 247 975 l 247 579 l 342 579 q 512 620 458 579 q 576 779 576 669 q 326 975 576 975 l 247 975 m 422 0 l 54 0 l 54 1042 l 360 1042 q 628 997 535 1042 q 758 776 758 934 q 578 552 758 599 q 796 279 796 494 q 422 0 796 0 "},"Ι":{"x_min":139,"x_max":331,"ha":470,"o":"m 331 0 l 139 0 l 139 1042 l 331 1042 l 331 0 "},"Ύ":{"x_min":17,"x_max":1258.609375,"ha":1299,"o":"m 717 0 l 717 504 l 367 1042 l 596 1042 l 858 614 l 1140 1042 l 1258 1042 l 910 532 l 910 0 l 717 0 m 87 781 l 17 781 l 179 1053 l 297 1053 l 87 781 "},"’":{"x_min":39.953125,"x_max":802,"ha":741,"o":"m 39 0 l 177 450 l 58 450 l 58 518 l 199 518 l 291 822 q 580 1064 366 1064 q 802 983 720 1064 l 749 926 q 620 979 683 979 q 470 831 513 979 l 374 518 l 568 518 l 568 450 l 354 450 l 252 78 l 652 78 l 652 0 l 39 0 "},"Ν":{"x_min":56,"x_max":864,"ha":920,"o":"m 56 0 l 56 1042 l 232 1042 l 771 322 l 771 1042 l 864 1042 l 864 0 l 771 0 l 148 830 l 148 0 l 56 0 "},"-":{"x_min":67,"x_max":457,"ha":525,"o":"m 67 187 l 67 313 l 457 520 l 457 394 l 67 187 "},"Q":{"x_min":58,"x_max":1123,"ha":1183,"o":"m 503 -141 l 503 -18 q 177 164 299 14 q 58 519 58 311 q 210 905 58 745 q 589 1064 363 1064 q 970 904 816 1064 q 1123 519 1123 747 q 1002 163 1123 310 q 679 -18 882 17 l 679 -141 l 503 -141 m 503 174 l 677 174 l 677 57 q 864 246 802 99 q 916 518 916 368 q 843 831 916 699 q 590 997 758 997 q 335 832 424 997 q 265 518 265 699 q 315 246 265 365 q 503 57 377 101 l 503 174 "},"M":{"x_min":131,"x_max":1130,"ha":1265,"o":"m 131 0 l 131 1042 l 350 1042 l 643 329 l 926 1042 l 1130 1042 l 1130 0 l 942 0 l 942 837 l 589 -37 l 221 837 l 221 0 l 131 0 "},"Ψ":{"x_min":56,"x_max":988,"ha":1042,"o":"m 665 0 l 474 0 l 474 279 l 449 279 q 424 277 425 277 q 142 388 236 277 q 56 681 56 490 l 56 1042 l 249 1042 l 249 715 q 283 488 249 556 q 474 388 333 388 l 474 1042 l 664 1042 l 664 387 q 858 485 805 387 q 895 715 895 555 l 895 1042 l 988 1042 l 988 680 q 914 401 988 508 q 664 279 829 279 q 665 0 664 9 "},"―":{"x_min":67,"x_max":2710,"ha":2778,"o":"m 67 188 l 67 521 l 2710 521 l 2710 188 l 67 188 "},"{":{"x_min":135,"x_max":668,"ha":797,"o":"m 668 1052 q 619 1052 637 1052 q 498 998 532 1052 q 471 864 471 954 q 471 772 471 835 q 471 675 471 686 q 445 516 471 575 q 318 413 411 441 q 447 311 409 388 q 472 147 472 250 q 472 48 472 114 q 472 -44 472 -16 q 505 -188 472 -149 q 668 -225 537 -225 l 668 -322 l 640 -322 q 438 -281 495 -322 q 357 -10 357 -224 q 357 80 357 5 l 357 151 q 309 325 357 281 q 144 366 264 366 q 135 366 140 366 l 135 462 q 182 462 164 462 q 330 532 289 462 q 360 702 360 584 q 360 795 360 753 q 360 886 360 875 q 438 1110 360 1060 q 668 1152 501 1152 l 668 1052 "},"¼":{"x_min":40,"x_max":1183,"ha":1223,"o":"m 1183 593 q 1089 368 1183 447 q 852 294 1002 294 l 707 294 l 707 0 l 515 0 l 515 294 l 370 294 q 134 369 221 294 q 40 594 40 448 q 145 831 40 746 q 398 903 242 903 l 514 903 l 514 1042 l 707 1042 l 707 903 l 826 903 q 1078 829 984 903 q 1183 593 1183 749 m 990 582 q 916 782 990 723 q 707 838 849 838 l 707 358 l 731 358 q 990 582 990 358 m 517 358 l 517 838 l 491 838 q 233 582 233 838 q 315 401 233 454 q 517 358 380 358 "},"#":{"x_min":80.5625,"x_max":1145.828125,"ha":1226,"o":"m 758 671 l 552 671 l 477 460 l 683 460 l 758 671 m 718 1134 l 588 768 l 791 768 l 922 1134 l 1034 1134 l 905 768 l 1145 768 l 1111 671 l 869 671 l 795 460 l 1052 460 l 1019 364 l 761 364 l 631 -1 l 519 -1 l 650 364 l 443 364 l 312 -1 l 201 -1 l 330 364 l 80 364 l 115 460 l 363 460 l 438 671 l 172 671 l 205 768 l 473 768 l 604 1134 l 718 1134 "},"ι":{"x_min":119,"x_max":290,"ha":411,"o":"m 119 771 l 290 771 l 290 0 l 119 0 l 119 771 "},"":{"x_min":87,"x_max":1171.9375,"ha":1261,"o":"m 651 947 q 650 976 650 951 q 728 1159 650 1077 q 906 1256 802 1237 q 909 1209 909 1231 q 834 1030 909 1113 q 663 946 758 946 l 651 947 m 1171 314 q 1052 95 1096 154 q 853 -28 960 -28 q 753 -1 821 -28 q 655 25 686 25 q 555 -1 623 25 q 455 -28 484 -28 q 252 111 358 -28 q 130 340 174 213 q 87 574 87 465 q 178 845 87 738 q 435 958 274 958 q 548 932 479 958 q 654 906 623 906 q 753 933 681 906 q 867 961 828 961 q 1146 833 1035 961 q 990 578 990 733 q 1171 314 990 396 "},"Ê":{"x_min":0,"x_max":0,"ha":938},"Ά":{"x_min":27.78125,"x_max":900,"ha":926,"o":"m 254 343 l 556 343 l 405 723 l 254 343 m 27 0 l 455 1062 l 900 0 l 694 0 l 586 278 l 226 278 l 119 0 l 27 0 m 148 781 l 77 781 l 240 1052 l 358 1052 l 148 781 "},")":{"x_min":100.109375,"x_max":393,"ha":608,"o":"m 100 1025 l 191 1066 q 343 719 288 915 q 393 343 393 532 q 343 -31 393 155 q 191 -377 288 -232 l 100 -338 q 239 343 239 -51 q 100 1025 239 737 "},"ε":{"x_min":119,"x_max":640,"ha":701,"o":"m 119 632 q 149 744 119 714 q 263 771 178 771 l 631 771 l 631 703 l 369 703 q 313 694 327 703 q 290 641 290 679 l 290 447 l 570 447 l 570 372 l 290 372 l 290 128 q 317 73 290 86 q 380 67 334 67 l 640 67 l 640 0 l 235 0 q 138 37 160 0 q 119 139 119 65 l 119 632 "},"Å":{"x_min":139,"x_max":1192,"ha":1330,"o":"m 1192 352 q 889 239 1028 239 q 664 293 811 239 q 439 347 516 347 q 139 223 320 347 l 139 325 q 440 439 307 439 q 666 384 519 439 q 890 332 816 332 q 1192 455 1014 332 l 1192 352 m 1192 626 q 890 514 1033 514 q 665 566 812 514 q 439 621 516 621 q 139 497 316 621 l 139 600 q 440 713 302 713 q 666 660 516 713 q 890 607 811 607 q 1192 728 1016 607 l 1192 626 "},"¸":{"x_min":56,"x_max":875,"ha":929,"o":"m 249 492 l 249 0 l 56 0 l 56 1042 l 249 1042 l 249 568 l 685 568 l 685 1042 l 875 1042 l 875 0 l 685 0 l 685 492 l 249 492 "},"a":{"x_min":34.71875,"x_max":708.328125,"ha":738,"o":"m 177 236 l 109 0 l 34 0 l 223 673 q 359 793 256 793 q 511 663 473 793 l 708 0 l 533 0 l 463 236 l 177 236 m 195 303 l 445 303 l 354 630 q 318 674 344 674 q 288 630 298 674 l 195 303 "},"=":{"x_min":199,"x_max":1131,"ha":1330,"o":"m 1131 373 l 1131 281 l 199 281 l 199 373 l 1131 373 m 1131 670 l 1131 580 l 199 580 l 199 670 l 1131 670 "},"ρ":{"x_min":119,"x_max":816,"ha":872,"o":"m 290 66 q 407 58 356 58 q 641 341 641 58 q 369 703 641 703 l 290 703 l 290 66 m 290 0 l 290 -313 l 119 -313 l 119 771 l 388 771 q 692 668 574 771 q 816 376 816 559 q 698 92 816 199 q 406 -9 584 -9 q 346 -4 385 -9 q 290 0 309 0 "},"ú":{"x_min":35,"x_max":659,"ha":709,"o":"m 368 928 l 35 928 l 35 1041 q 602 1041 371 1041 l 602 876 l 267 721 q 252 682 252 708 l 252 137 q 357 22 252 68 l 553 -59 q 659 -188 659 -109 q 550 -319 659 -280 q 368 -350 476 -350 l 173 -350 l 173 -287 q 252 -287 215 -287 l 331 -287 l 332 -287 q 421 -262 386 -287 q 460 -180 460 -232 q 365 -53 460 -101 l 191 28 l 189 28 q 94 155 94 75 l 94 646 l 94 689 l 94 723 l 94 725 q 113 807 94 780 q 207 865 136 837 l 368 928 "},"¯":{"x_min":142,"x_max":328,"ha":470,"o":"m 235 435 q 169 462 197 435 q 142 528 142 490 q 169 594 142 566 q 234 621 196 621 q 300 594 273 621 q 328 528 328 566 q 300 462 328 490 q 235 435 272 435 "},"Z":{"x_min":24.671875,"x_max":873.71875,"ha":902,"o":"m 24 0 l 612 964 l 83 964 l 83 1042 l 873 1042 l 287 78 l 864 78 l 864 0 l 24 0 "},"u":{"x_min":117,"x_max":690,"ha":794,"o":"m 289 771 l 289 271 q 457 78 289 78 q 589 148 551 78 q 614 305 614 198 l 614 771 l 690 771 l 690 252 q 619 50 690 122 q 421 -25 548 -25 q 117 272 117 -25 l 117 771 l 289 771 "},"k":{"x_min":119,"x_max":785.828125,"ha":783,"o":"m 290 0 l 119 0 l 119 1257 l 290 1257 l 290 379 l 606 771 l 702 771 l 438 444 l 785 0 l 571 0 l 290 359 l 290 0 "},"Ù":{"x_min":16.453125,"x_max":1212,"ha":1247,"o":"m 1004 518 q 931 831 1004 699 q 679 997 844 997 q 425 833 512 997 q 353 518 353 696 q 425 204 353 335 q 679 41 512 41 q 933 204 844 41 q 1004 518 1004 335 m 678 -27 q 296 132 452 -27 q 147 519 147 288 q 298 905 147 748 q 678 1064 449 1064 q 1059 904 905 1064 q 1212 519 1212 747 q 1059 132 1212 292 q 678 -27 903 -27 m 87 780 l 16 780 l 179 1053 l 297 1053 l 87 780 "},"Α":{"x_min":27.78125,"x_max":900,"ha":926,"o":"m 254 343 l 556 343 l 405 723 l 254 343 m 27 0 l 455 1062 l 900 0 l 694 0 l 586 278 l 226 278 l 119 0 l 27 0 "},"¢":{"x_min":27.78125,"x_max":900,"ha":926,"o":"m 145 64 l 672 64 l 405 712 l 145 64 m 27 0 l 455 1062 l 900 0 l 27 0 "},"é":{"x_min":119,"x_max":290,"ha":411,"o":"m 119 771 l 290 771 l 290 0 l 119 0 l 119 771 "},"B":{"x_min":135,"x_max":876,"ha":962,"o":"m 328 514 l 328 67 l 450 67 q 688 266 688 67 q 419 514 688 514 l 328 514 m 328 975 l 328 579 l 423 579 q 593 620 536 579 q 656 779 656 669 q 407 975 656 975 l 328 975 m 503 0 l 135 0 l 135 1042 l 441 1042 q 709 997 616 1042 q 839 776 839 934 q 660 552 839 599 q 876 279 876 494 q 503 0 876 0 "},"H":{"x_min":135,"x_max":955,"ha":1091,"o":"m 328 492 l 328 0 l 135 0 l 135 1042 l 328 1042 l 328 568 l 763 568 l 763 1042 l 955 1042 l 955 0 l 763 0 l 763 492 l 328 492 "},"ν":{"x_min":119,"x_max":696,"ha":818,"o":"m 194 0 l 119 0 l 119 643 q 231 793 119 793 q 396 664 326 793 q 602 301 523 434 l 608 300 l 619 305 q 622 771 622 322 l 696 771 l 696 65 q 689 4 696 18 q 640 -25 676 -25 q 573 22 599 -25 l 212 637 l 206 640 l 196 637 q 194 0 194 632 "},"î":{"x_min":119,"x_max":696,"ha":818,"o":"m 194 0 l 119 0 l 119 643 q 231 793 119 793 q 396 664 326 793 q 602 301 523 434 l 608 300 l 619 305 q 622 771 622 322 l 696 771 l 696 65 q 689 4 696 18 q 640 -25 676 -25 q 573 22 599 -25 l 212 637 l 206 640 l 196 637 q 194 0 194 632 "},"β":{"x_min":54,"x_max":751,"ha":791,"o":"m 751 376 q 690 161 751 254 q 515 26 627 68 q 372 0 452 0 l 229 0 l 225 0 l 225 -347 l 54 -347 l 54 1042 l 363 1042 q 657 829 657 1042 q 629 751 657 794 q 564 705 599 705 q 751 376 751 590 m 492 830 q 428 933 492 895 q 304 964 375 964 l 225 964 l 225 710 l 298 710 q 423 736 371 710 q 492 830 492 766 m 576 343 q 505 564 576 483 q 293 650 432 650 q 259 648 275 650 q 225 646 229 646 l 225 66 q 323 60 263 60 q 576 343 576 60 "},"Ό":{"x_min":16.453125,"x_max":1212,"ha":1247,"o":"m 1004 518 q 931 831 1004 699 q 679 997 844 997 q 425 833 512 997 q 353 518 353 696 q 425 204 353 335 q 679 41 512 41 q 933 204 844 41 q 1004 518 1004 335 m 678 -27 q 296 132 452 -27 q 147 519 147 288 q 298 905 147 748 q 678 1064 449 1064 q 1059 904 905 1064 q 1212 519 1212 747 q 1059 132 1212 292 q 678 -27 903 -27 m 87 780 l 16 780 l 179 1053 l 297 1053 l 87 780 "},"−":{"x_min":67,"x_max":457,"ha":525,"o":"m 67 187 l 67 313 l 457 520 l 457 394 l 67 187 "},"≠":{"x_min":199,"x_max":1131,"ha":1330,"o":"m 1011 865 l 858 670 l 1131 670 l 1131 581 l 801 581 l 636 371 l 1131 371 l 1131 281 l 579 281 l 383 32 l 314 86 l 467 281 l 199 281 l 199 371 l 525 371 l 690 581 l 199 581 l 199 670 l 747 670 l 943 920 l 1011 865 "},"¥":{"x_min":54,"x_max":801,"ha":854,"o":"m 54 0 l 54 78 l 335 78 l 335 504 l 86 504 l 86 582 l 335 582 l 335 964 l 54 964 l 54 1042 l 801 1042 l 801 964 l 525 964 l 525 582 l 769 582 l 769 504 l 525 504 l 525 78 l 801 78 l 801 0 l 54 0 "},"U":{"x_min":131,"x_max":867,"ha":989,"o":"m 131 1042 l 324 1042 l 324 412 q 360 186 324 258 q 550 85 410 85 q 739 186 689 85 q 774 412 774 255 l 774 1042 l 867 1042 l 867 378 q 499 -26 867 -26 q 218 86 311 -26 q 131 378 131 190 l 131 1042 "},"Ñ":{"x_min":67,"x_max":2710,"ha":2778,"o":"m 67 188 l 67 521 l 2710 521 l 2710 188 l 67 188 "},"F":{"x_min":135,"x_max":794.671875,"ha":831,"o":"m 135 0 l 135 1042 l 794 1042 l 794 964 l 328 964 l 328 582 l 765 582 l 765 508 l 328 508 l 328 0 l 135 0 "},"Χ":{"x_min":31.9375,"x_max":923.609375,"ha":950,"o":"m 31 0 l 379 493 l 33 1042 l 252 1042 l 500 650 l 776 1042 l 886 1042 l 551 575 l 923 0 l 702 0 l 434 419 l 141 0 l 31 0 "},"*":{"x_min":126.390625,"x_max":650,"ha":775,"o":"m 409 818 l 606 932 l 650 801 l 425 776 l 590 622 l 480 543 l 387 750 l 293 544 l 183 623 l 351 776 l 126 801 l 168 932 l 363 818 l 319 1042 l 455 1042 l 409 818 "},"°":{"x_min":27.78125,"x_max":900,"ha":926,"o":"m 254 343 l 556 343 l 405 723 l 254 343 m 27 0 l 455 1062 l 900 0 l 694 0 l 586 278 l 226 278 l 119 0 l 27 0 "},"Ξ":{"x_min":54,"x_max":801,"ha":854,"o":"m 54 0 l 54 78 l 335 78 l 335 504 l 86 504 l 86 582 l 335 582 l 335 964 l 54 964 l 54 1042 l 801 1042 l 801 964 l 525 964 l 525 582 l 769 582 l 769 504 l 525 504 l 525 78 l 801 78 l 801 0 l 54 0 "},"å":{"x_min":119,"x_max":640,"ha":701,"o":"m 119 632 q 149 744 119 714 q 263 771 178 771 l 631 771 l 631 703 l 369 703 q 313 694 327 703 q 290 641 290 679 l 290 447 l 570 447 l 570 372 l 290 372 l 290 128 q 317 73 290 86 q 380 67 334 67 l 640 67 l 640 0 l 235 0 q 138 37 160 0 q 119 139 119 65 l 119 632 "},"Ϋ":{"x_min":-39.84375,"x_max":851.671875,"ha":811,"o":"m 310 0 l 310 504 l -39 1042 l 189 1042 l 451 614 l 733 1042 l 851 1042 l 503 532 l 503 0 l 310 0 m 313 1248 q 370 1224 347 1248 q 394 1167 394 1202 q 370 1108 394 1132 q 313 1085 346 1085 q 254 1108 278 1085 q 231 1167 231 1135 q 254 1224 231 1200 q 313 1248 276 1248 m 579 1248 q 636 1224 614 1248 q 660 1167 660 1200 q 636 1108 660 1135 q 579 1085 612 1085 q 521 1108 544 1085 q 497 1167 497 1135 q 521 1224 497 1200 q 579 1248 543 1248 "},"0":{"x_min":58,"x_max":880,"ha":937,"o":"m 460 41 q 648 235 589 41 q 687 535 687 361 q 650 816 687 692 q 474 997 596 997 q 288 809 346 997 q 248 516 248 684 q 282 228 248 345 q 460 41 335 41 m 432 -27 l 434 -27 q 145 132 250 -27 q 58 463 58 270 q 160 866 58 699 q 503 1064 281 1064 q 791 904 687 1064 q 880 574 880 769 q 775 173 880 339 q 432 -27 652 -27 "},"΄":{"x_min":177.78125,"x_max":416.671875,"ha":411,"o":"m 238 843 l 177 843 l 316 1075 l 416 1075 l 238 843 "},"ö":{"x_min":44,"x_max":1116,"ha":1170,"o":"m 618 770 l 618 306 q 644 147 618 199 q 776 77 680 77 q 944 271 944 77 l 944 770 l 1116 770 l 1116 272 q 812 -26 1116 -26 q 579 92 647 -26 q 348 -26 513 -26 q 44 272 44 -26 l 44 770 l 216 770 l 216 271 q 384 77 216 77 q 516 147 480 77 q 543 306 543 199 l 543 770 l 618 770 "},"Β":{"x_min":54,"x_max":796,"ha":835,"o":"m 247 514 l 247 67 l 370 67 q 608 266 608 67 q 340 514 608 514 l 247 514 m 247 975 l 247 579 l 342 579 q 512 620 458 579 q 576 779 576 669 q 326 975 576 975 l 247 975 m 422 0 l 54 0 l 54 1042 l 360 1042 q 628 997 535 1042 q 758 776 758 934 q 578 552 758 599 q 796 279 796 494 q 422 0 796 0 "},"Õ":{"x_min":115.171875,"x_max":386,"ha":469,"o":"m 115 602 l 208 930 q 309 1064 247 1064 q 363 1043 341 1064 q 386 990 386 1022 q 331 877 386 947 l 115 602 "},"þ":{"x_min":117,"x_max":690,"ha":794,"o":"m 289 771 l 289 271 q 457 78 289 78 q 589 148 551 78 q 614 305 614 198 l 614 771 l 690 771 l 690 252 q 619 50 690 122 q 421 -25 549 -25 q 117 272 117 -25 l 117 771 l 289 771 m 375 822 l 314 822 l 453 1054 l 553 1054 l 375 822 m 265 999 q 314 979 291 999 q 335 929 335 958 q 314 880 335 901 q 265 861 291 861 q 216 880 239 861 q 196 929 196 901 q 216 979 196 958 q 265 999 239 999 m 578 999 q 626 979 604 999 q 648 929 648 958 q 626 880 648 901 q 578 861 604 861 q 529 880 551 861 q 509 929 509 901 q 529 979 509 958 q 578 999 551 999 "},"]":{"x_min":115.390625,"x_max":389,"ha":608,"o":"m 389 1042 l 389 -339 l 115 -339 l 115 -279 l 239 -279 l 239 984 l 115 984 l 115 1042 l 389 1042 "},"χ":{"x_min":27.78125,"x_max":712.5,"ha":739,"o":"m 126 -347 l 33 -347 l 308 154 l 27 773 l 227 773 l 411 358 l 620 773 l 706 773 l 455 268 l 712 -347 l 511 -347 l 350 58 l 126 -347 "},"8":{"x_min":14,"x_max":711,"ha":739,"o":"m 492 831 q 471 940 492 894 q 386 1000 444 1000 q 291 930 325 1000 q 268 807 268 876 q 376 639 268 639 q 468 708 439 639 q 492 831 492 759 m 522 316 q 493 474 522 410 q 371 561 453 561 q 235 462 280 561 q 202 284 202 385 q 232 124 202 187 q 355 41 272 41 q 488 141 443 41 q 522 316 522 216 m 261 606 q 153 679 193 625 q 114 802 114 727 q 199 995 114 923 q 401 1064 276 1064 q 577 1006 508 1064 q 650 837 650 944 q 505 620 650 700 q 711 335 711 566 q 602 74 711 177 q 336 -27 494 -27 q 102 60 192 -27 q 14 289 14 146 q 261 606 14 527 "},"ί":{"x_min":119,"x_max":416.390625,"ha":411,"o":"m 119 771 l 290 771 l 290 0 l 119 0 l 119 771 m 238 843 l 177 843 l 316 1075 l 416 1075 l 238 843 "},"Ζ":{"x_min":27.671875,"x_max":876.71875,"ha":902,"o":"m 27 0 l 615 964 l 86 964 l 86 1042 l 876 1042 l 290 78 l 867 78 l 867 0 l 27 0 "},"R":{"x_min":135,"x_max":872.15625,"ha":931,"o":"m 135 0 l 135 1042 l 475 1042 q 868 737 868 1042 q 788 552 868 622 q 596 489 716 489 l 872 0 l 655 0 l 376 528 q 676 744 676 528 q 407 975 676 975 l 328 975 l 328 0 l 135 0 "},"o":{"x_min":56,"x_max":827,"ha":884,"o":"m 440 31 q 607 159 550 31 q 648 383 648 256 q 607 606 648 509 q 440 736 550 736 q 275 606 331 736 q 233 383 233 511 q 275 161 233 256 q 440 31 331 31 m 464 -25 q 169 95 286 -25 q 56 394 56 215 q 150 674 56 566 q 417 793 250 793 q 711 673 596 793 q 827 373 827 556 q 732 91 827 199 q 464 -25 633 -25 "},"5":{"x_min":68.453125,"x_max":620,"ha":684,"o":"m 68 0 l 384 446 q 423 536 423 504 q 370 596 423 580 q 279 603 349 603 l 74 603 l 74 1042 l 603 1042 l 603 964 l 245 964 l 245 681 l 306 681 q 382 681 338 681 q 620 542 620 681 q 543 370 620 480 l 281 0 l 68 0 "},"õ":{"x_min":42,"x_max":705,"ha":747,"o":"m 705 493 q 604 118 705 263 q 521 13 550 38 q 396 -25 474 -25 q 257 18 313 -25 q 158 130 218 50 q 42 521 42 286 q 140 914 42 773 q 224 1018 197 994 q 349 1059 275 1059 q 491 1015 435 1059 q 588 903 520 992 q 705 493 705 748 m 523 522 q 374 985 523 985 q 223 522 223 985 q 303 532 232 532 q 523 522 431 532 m 523 457 l 223 457 q 374 50 223 50 q 523 457 523 50 "},",":{"x_min":58.390625,"x_max":332,"ha":469,"o":"m 58 -296 l 155 31 q 186 115 176 99 q 255 163 212 163 q 309 143 287 163 q 332 90 332 122 q 277 -24 332 44 l 58 -296 "},"d":{"x_min":56,"x_max":752,"ha":873,"o":"m 581 702 q 483 712 508 712 q 231 370 231 712 q 504 67 231 67 l 581 67 l 581 702 m 581 770 l 581 1257 l 752 1257 l 752 0 l 483 0 q 179 103 299 0 q 56 394 56 209 q 160 673 56 566 q 438 779 266 779 q 581 770 493 779 "},"\"":{"x_min":74,"x_max":386,"ha":460,"o":"m 386 1117 l 386 686 l 293 686 l 293 1117 l 386 1117 m 164 1117 l 164 686 l 74 686 l 74 1117 l 164 1117 "},"ê":{"x_min":57,"x_max":632,"ha":671,"o":"m 330 -350 l 135 -350 l 135 -287 q 213 -287 178 -287 l 292 -287 l 294 -287 q 383 -262 348 -287 q 422 -180 422 -232 q 327 -53 422 -100 l 151 26 q 57 155 57 74 l 57 372 q 108 475 57 432 q 222 529 146 505 l 338 561 l 223 590 q 109 641 152 610 q 58 741 58 680 q 95 833 58 797 q 323 928 107 843 l 65 928 l 65 1041 q 632 1041 401 1041 l 632 876 l 567 876 l 183 711 q 162 686 162 700 q 283 637 162 671 l 454 594 l 549 619 l 549 465 q 297 400 434 433 q 211 246 211 378 q 211 189 211 239 q 211 137 211 165 q 319 22 211 68 l 515 -59 q 621 -188 621 -107 q 512 -319 621 -277 q 330 -350 437 -350 "},"„":{"x_min":0,"x_max":385.5,"ha":406,"o":"m 6 413 l 215 665 q 254 736 254 712 q 129 779 254 779 q 72 779 91 779 q 44 776 43 779 l 224 993 l 0 993 l 0 1040 l 385 1040 l 197 814 q 253 814 226 814 q 373 728 373 814 q 327 625 373 679 l 149 413 l 6 413 "},"δ":{"x_min":42,"x_max":812.78125,"ha":854,"o":"m 428 49 q 589 150 533 49 q 635 347 635 230 q 589 544 635 461 q 428 646 535 646 q 265 544 321 646 q 221 347 221 465 q 265 150 221 230 q 428 49 321 49 m 340 695 q 189 860 189 774 q 290 1017 189 967 q 489 1055 366 1055 q 642 1042 544 1055 l 642 986 q 500 999 519 999 q 345 912 345 999 q 390 832 345 865 q 476 786 397 826 q 812 338 812 616 q 698 81 812 170 q 423 0 593 0 q 157 100 269 0 q 42 357 42 204 q 117 594 42 500 q 340 695 197 695 "},"Â":{"x_min":198.9375,"x_max":1131,"ha":1330,"o":"m 1131 668 l 1131 277 l 1042 277 l 1042 578 l 198 578 l 198 668 l 1131 668 "},"ω":{"x_min":44,"x_max":1116,"ha":1170,"o":"m 618 770 l 618 306 q 644 147 618 199 q 776 77 680 77 q 944 271 944 77 l 944 770 l 1116 770 l 1116 272 q 812 -26 1116 -26 q 579 92 647 -26 q 348 -26 513 -26 q 44 272 44 -26 l 44 770 l 216 770 l 216 271 q 384 77 216 77 q 516 147 480 77 q 543 306 543 199 l 543 770 l 618 770 "},"Í":{"x_min":27.78125,"x_max":900,"ha":926,"o":"m 254 343 l 556 343 l 405 723 l 254 343 m 27 0 l 455 1062 l 900 0 l 694 0 l 586 278 l 226 278 l 119 0 l 27 0 m 148 781 l 77 781 l 240 1052 l 358 1052 l 148 781 "},"´":{"x_min":-40.21875,"x_max":851.828125,"ha":812,"o":"m 310 521 l 7 521 l 7 588 l 272 588 l -40 1042 l 189 1042 l 451 614 l 733 1042 l 851 1042 l 534 588 l 806 588 l 806 521 l 503 521 l 503 389 l 806 389 l 806 324 l 503 324 l 503 0 l 310 0 l 310 324 l 7 324 l 7 389 l 310 389 l 310 521 "},"Ú":{"x_min":17,"x_max":1258.609375,"ha":1299,"o":"m 717 0 l 717 504 l 367 1042 l 596 1042 l 858 614 l 1140 1042 l 1258 1042 l 910 532 l 910 0 l 717 0 m 87 781 l 17 781 l 179 1053 l 297 1053 l 87 781 "},"Ý":{"x_min":119,"x_max":416.390625,"ha":411,"o":"m 119 771 l 290 771 l 290 0 l 119 0 l 119 771 m 238 843 l 177 843 l 316 1075 l 416 1075 l 238 843 "},"Ω":{"x_min":28,"x_max":1163,"ha":1191,"o":"m 1163 0 l 698 0 q 683 58 693 25 q 869 248 808 103 q 921 519 921 364 q 848 831 921 695 q 596 997 762 997 q 342 833 429 997 q 270 519 270 701 q 319 248 270 365 q 507 58 382 101 q 492 0 500 37 l 28 0 l 28 174 l 168 174 q 64 519 64 311 q 214 904 64 747 q 596 1064 368 1064 q 976 904 822 1064 q 1127 519 1127 746 q 1022 174 1127 311 l 1163 174 l 1163 0 "},"z":{"x_min":41.78125,"x_max":611,"ha":644,"o":"m 255 67 l 611 67 l 611 0 l 41 0 l 355 703 l 89 703 l 89 771 l 422 771 q 531 708 531 771 q 519 664 531 690 l 255 67 "},"Θ":{"x_min":56,"x_max":1120,"ha":1170,"o":"m 586 -27 q 206 132 358 -27 q 56 519 56 288 q 206 904 56 747 q 586 1064 357 1064 q 968 904 814 1064 q 1120 519 1120 748 q 967 134 1120 291 q 586 -27 813 -27 m 586 997 q 343 852 437 997 q 260 568 260 727 l 909 568 q 586 997 856 997 m 909 492 l 260 492 q 337 194 260 324 q 586 41 428 41 q 833 194 743 41 q 909 492 909 323 "},"ã":{"x_min":56,"x_max":810,"ha":866,"o":"m 360 -26 q 196 5 262 -26 q 135 48 161 22 q 56 273 56 127 l 56 771 l 228 771 l 228 271 q 401 78 228 78 l 401 770 l 577 770 l 577 78 l 594 72 q 735 305 735 72 l 735 771 l 810 771 l 810 252 q 751 64 810 143 q 583 -22 688 -22 l 583 -213 q 572 -293 583 -263 q 561 -316 568 -306 q 462 -347 535 -347 l 275 -347 l 275 -280 l 298 -280 q 402 -208 402 -280 l 402 -26 l 360 -26 "},"æ":{"x_min":42,"x_max":1100,"ha":1143,"o":"m 1100 376 q 993 96 1100 199 q 711 -8 886 -9 q 653 0 725 -8 l 653 -347 l 489 -347 l 489 0 q 459 -4 477 0 q 430 -8 441 -8 q 148 96 255 -8 q 42 376 42 201 q 155 663 42 555 q 448 771 269 771 l 694 771 q 987 663 873 771 q 1100 376 1100 555 m 935 341 q 882 600 935 519 q 653 703 816 703 l 653 66 l 678 60 q 703 58 700 58 q 935 341 935 58 m 489 66 l 489 703 l 466 703 q 254 590 316 703 q 207 341 207 505 q 439 58 207 58 q 465 62 447 58 l 489 66 "},"É":{"x_min":169,"x_max":1281,"ha":1595,"o":"m 262 -22 q 196 4 223 -22 q 169 69 169 32 q 196 136 169 108 q 262 164 224 164 q 328 136 302 164 q 355 69 355 107 q 327 4 355 32 q 262 -22 300 -22 m 725 -22 q 659 4 686 -22 q 632 69 632 32 q 659 136 632 108 q 725 164 687 164 q 791 136 765 164 q 818 69 818 107 q 790 4 818 32 q 725 -22 763 -22 m 1188 -22 q 1122 4 1149 -22 q 1095 69 1095 32 q 1122 136 1095 108 q 1188 164 1150 164 q 1254 136 1228 164 q 1281 69 1281 107 q 1253 4 1281 32 q 1188 -22 1226 -22 "},"~":{"x_min":170.828125,"x_max":626.390625,"ha":797,"o":"m 626 995 q 477 854 583 854 q 388 871 445 854 q 301 891 337 891 q 233 834 261 891 l 170 834 q 341 976 208 976 q 413 956 363 976 q 486 937 462 937 q 563 995 531 937 l 626 995 "},"³":{"x_min":204,"x_max":1125,"ha":1329,"o":"m 1125 116 l 1125 26 l 204 26 l 204 116 l 1125 116 m 1125 618 l 1125 539 l 204 229 l 204 327 l 966 578 l 204 831 l 204 927 l 1125 618 "},"¡":{"x_min":56,"x_max":715.671875,"ha":743,"o":"m 249 0 l 56 0 l 56 1042 l 715 1042 l 715 964 l 249 964 l 249 0 "},"[":{"x_min":219,"x_max":492.234375,"ha":608,"o":"m 219 1042 l 492 1042 l 492 984 l 370 984 l 370 -279 l 492 -279 l 492 -339 l 219 -339 l 219 1042 "},"ζ":{"x_min":35,"x_max":659,"ha":709,"o":"m 368 928 l 35 928 l 35 1041 q 602 1041 371 1041 l 602 876 l 267 721 q 252 682 252 708 l 252 137 q 357 22 252 68 l 553 -59 q 659 -188 659 -109 q 550 -319 659 -280 q 368 -350 476 -350 l 173 -350 l 173 -287 q 252 -287 215 -287 l 331 -287 l 332 -287 q 421 -262 386 -287 q 460 -180 460 -232 q 365 -53 460 -101 l 191 28 l 189 28 q 94 155 94 75 l 94 646 l 94 689 l 94 723 l 94 725 q 113 807 94 780 q 207 865 136 837 l 368 928 "},"Γ":{"x_min":56,"x_max":715.671875,"ha":743,"o":"m 249 0 l 56 0 l 56 1042 l 715 1042 l 715 964 l 249 964 l 249 0 "},"%":{"x_min":65,"x_max":1333,"ha":1398,"o":"m 1183 277 q 1045 512 1183 512 q 911 288 911 512 q 1045 54 911 54 q 1183 277 1183 54 m 761 284 q 844 486 761 402 q 1045 568 929 568 q 1249 486 1165 568 q 1333 284 1333 402 q 1249 81 1333 165 q 1045 0 1165 0 q 842 81 927 0 q 761 284 761 163 m 403 -26 l 309 -26 l 994 1064 l 1090 1064 l 403 -26 m 488 752 q 352 986 488 986 q 218 762 218 986 q 352 528 218 528 q 488 752 488 528 m 65 758 q 148 959 65 877 q 352 1042 233 1042 q 554 959 470 1042 q 637 758 637 879 q 553 557 637 640 q 352 474 470 474 q 149 557 232 474 q 65 758 65 641 "},"P":{"x_min":135,"x_max":865,"ha":907,"o":"m 328 496 l 412 496 q 671 720 671 496 q 412 975 671 975 l 328 975 l 328 496 m 135 0 l 135 1042 l 506 1042 q 759 968 665 1042 q 865 731 865 884 q 777 508 865 580 q 572 437 706 449 q 328 433 525 433 l 328 0 l 135 0 "},"∏":{"x_min":125,"x_max":1067,"ha":1191,"o":"m 125 1148 l 1067 1148 l 1067 -305 l 910 -305 l 910 1013 l 279 1013 l 279 -305 l 125 -305 l 125 1148 "},"Έ":{"x_min":16.890625,"x_max":997,"ha":1037,"o":"m 353 0 l 353 1042 l 997 1042 l 997 964 l 547 964 l 547 582 l 965 582 l 965 504 l 547 504 l 547 78 l 997 78 l 997 0 l 353 0 m 87 781 l 16 781 l 179 1053 l 297 1053 l 87 781 "},"_":{"x_min":0,"x_max":797,"ha":797,"o":"m 797 -284 l 797 -376 l 0 -376 l 0 -284 l 797 -284 "},"ñ":{"x_min":44,"x_max":1116,"ha":1158,"o":"m 609 844 l 549 844 l 688 1076 l 788 1076 l 609 844 m 543 770 l 543 306 q 516 147 543 199 q 384 77 480 77 q 216 271 216 77 l 216 770 l 44 770 l 44 272 q 348 -26 44 -26 q 579 92 513 -26 q 812 -26 647 -26 q 1116 272 1116 -26 l 1116 770 l 944 770 l 944 271 q 776 77 944 77 q 644 147 680 77 q 618 306 618 199 l 618 770 l 543 770 "},"‚":{"x_min":18.5,"x_max":471,"ha":513,"o":"m 18 414 l 242 694 q 311 784 300 766 q 348 891 348 844 q 309 979 348 948 q 215 1007 272 1007 q 81 847 81 1007 l 31 847 l 31 874 q 90 1011 31 965 q 236 1053 145 1053 q 392 1008 327 1053 q 466 870 466 959 q 389 698 466 795 l 199 458 l 471 458 l 471 414 l 18 414 "},"Ρ":{"x_min":56,"x_max":785,"ha":828,"o":"m 249 496 l 333 496 q 592 720 592 496 q 333 975 592 975 l 249 975 l 249 496 m 56 0 l 56 1042 l 428 1042 q 680 968 586 1042 q 785 731 785 884 q 698 508 785 580 q 492 437 628 449 q 249 433 444 433 l 249 0 l 56 0 "},"Æ":{"x_min":28,"x_max":766,"ha":794,"o":"m 302 0 l 302 964 l 28 964 l 28 1042 l 766 1042 l 766 964 l 492 964 l 492 0 l 302 0 "},"₣":{"x_min":135,"x_max":1476.5625,"ha":1543,"o":"m 135 0 l 135 1042 l 794 1042 l 794 964 l 328 964 l 328 582 l 765 582 l 765 508 l 328 508 l 328 0 l 135 0 m 1014 0 l 843 0 l 843 771 l 1152 771 q 1446 558 1446 771 q 1278 376 1446 398 l 1476 0 l 1272 0 l 1089 385 q 1270 539 1270 385 q 1094 707 1270 707 l 1014 707 l 1014 0 "},"ª":{"x_min":26.390625,"x_max":865,"ha":905,"o":"m 33 1042 l 825 1042 l 825 964 l 295 964 l 561 522 l 288 78 l 865 78 l 865 0 l 26 0 l 347 522 l 33 1042 "},"΅":{"x_min":193,"x_max":603,"ha":797,"o":"m 402 1012 l 341 1012 l 480 1244 l 580 1244 l 402 1012 m 523 834 q 468 857 490 834 q 443 913 443 881 q 466 970 443 943 q 523 994 490 994 q 579 968 554 994 q 603 913 603 942 q 579 857 603 881 q 523 834 557 834 m 272 834 q 216 856 238 834 q 193 913 193 882 q 216 970 193 943 q 272 994 240 994 q 329 970 302 994 q 353 913 353 943 q 329 857 353 881 q 272 834 305 834 "},"Œ":{"x_min":193,"x_max":603,"ha":797,"o":"m 523 834 q 468 857 490 834 q 443 913 443 881 q 466 970 443 943 q 523 994 490 994 q 579 968 554 994 q 603 913 603 942 q 579 857 603 881 q 523 834 557 834 m 272 834 q 216 856 238 834 q 193 913 193 882 q 216 970 193 943 q 272 994 240 994 q 329 970 302 994 q 353 913 353 943 q 329 857 353 881 q 272 834 305 834 "},"ʽ":{"x_min":83.328125,"x_max":322.21875,"ha":411,"o":"m 261 828 l 322 828 l 183 1060 l 83 1060 l 261 828 "},"T":{"x_min":7,"x_max":745,"ha":753,"o":"m 280 0 l 280 964 l 7 964 l 7 1042 l 745 1042 l 745 964 l 472 964 l 472 0 l 280 0 "},"Þ":{"x_min":56,"x_max":827,"ha":884,"o":"m 440 31 q 607 159 550 31 q 648 383 648 256 q 607 606 648 509 q 440 736 550 736 q 275 606 331 736 q 233 383 233 511 q 275 161 233 256 q 440 31 331 31 m 464 -25 q 169 95 286 -25 q 56 394 56 215 q 150 674 56 566 q 417 793 250 793 q 711 673 596 793 q 827 373 827 556 q 732 91 827 199 q 464 -25 633 -25 m 435 843 l 375 843 l 514 1075 l 614 1075 l 435 843 "},"j":{"x_min":-30,"x_max":326,"ha":425,"o":"m 126 990 q 156 1060 126 1029 q 227 1091 187 1091 q 298 1061 268 1091 q 326 990 326 1031 q 296 921 326 950 q 227 892 267 892 q 156 921 185 892 q 126 990 126 950 m 312 771 l 312 -52 q 264 -250 312 -193 q 87 -311 213 -311 l 57 -311 l 56 -311 l -30 -311 l -30 -239 q 96 -227 77 -239 q 141 -119 141 -207 l 141 771 l 312 771 "},"Σ":{"x_min":26.390625,"x_max":865,"ha":905,"o":"m 33 1042 l 825 1042 l 825 964 l 295 964 l 561 522 l 288 78 l 865 78 l 865 0 l 26 0 l 347 522 l 33 1042 "},"1":{"x_min":34.390625,"x_max":323,"ha":449,"o":"m 158 0 l 158 979 q 34 969 127 979 l 34 1039 q 180 1047 92 1039 l 323 1064 l 323 0 l 158 0 "},"›":{"x_min":350,"x_max":449,"ha":798,"o":"m 449 318 l 449 -272 l 350 -272 l 350 318 l 449 318 m 449 1116 l 449 526 l 350 526 l 350 1116 l 449 1116 "},"<":{"x_min":206,"x_max":1124,"ha":1330,"o":"m 1124 793 l 344 475 l 1124 159 l 1124 58 l 206 434 l 206 516 l 1124 891 l 1124 793 "},"t":{"x_min":53,"x_max":550,"ha":604,"o":"m 217 0 l 217 703 l 53 703 l 53 771 l 550 771 l 550 703 l 386 703 l 386 0 l 217 0 "},"¬":{"x_min":89,"x_max":731,"ha":821,"o":"m 462 236 q 520 221 497 221 q 603 304 603 221 q 540 427 603 365 l 366 601 q 308 608 334 608 q 247 584 275 608 q 221 527 221 562 q 291 406 221 480 l 462 236 m 159 -109 l 222 -57 q 398 -167 302 -167 q 469 -143 438 -167 q 497 -79 497 -119 q 391 86 497 -19 l 208 270 q 196 284 203 277 q 89 491 89 397 q 137 620 89 569 q 266 667 186 667 q 309 660 281 667 q 185 888 185 791 q 253 1025 185 975 q 402 1071 315 1071 q 663 938 577 1071 l 607 898 q 424 1004 537 1004 q 351 983 383 1004 q 318 917 318 958 q 424 755 318 865 l 623 558 q 731 343 731 437 q 677 212 731 255 q 548 171 630 171 q 520 172 529 171 q 640 -48 640 61 q 574 -193 640 -140 q 419 -242 510 -242 q 159 -109 270 -242 "},"ù":{"x_min":117,"x_max":690,"ha":794,"o":"m 289 771 l 289 271 q 457 78 289 78 q 589 148 551 78 q 614 305 614 198 l 614 771 l 690 771 l 690 252 q 619 50 690 122 q 421 -25 548 -25 q 117 272 117 -25 l 117 771 l 289 771 "},"ï":{"x_min":56,"x_max":827,"ha":884,"o":"m 440 31 q 607 159 550 31 q 648 383 648 256 q 607 606 648 509 q 440 736 550 736 q 275 606 331 736 q 233 383 233 511 q 275 161 233 256 q 440 31 331 31 m 464 -25 q 169 95 286 -25 q 56 394 56 215 q 150 674 56 566 q 417 793 250 793 q 711 673 596 793 q 827 373 827 556 q 732 91 827 199 q 464 -25 633 -25 "},"Ò":{"x_min":79,"x_max":662.609375,"ha":779,"o":"m 662 1064 l 566 737 q 465 603 527 603 q 411 623 433 603 q 389 676 389 646 q 443 790 389 722 l 662 1064 m 351 1064 l 258 737 q 156 603 220 603 q 101 623 124 603 q 79 676 79 646 q 134 790 79 722 l 351 1064 "},"ξ":{"x_min":57,"x_max":632,"ha":671,"o":"m 330 -350 l 135 -350 l 135 -287 q 213 -287 178 -287 l 292 -287 l 294 -287 q 383 -262 348 -287 q 422 -180 422 -232 q 327 -53 422 -100 l 151 26 q 57 155 57 74 l 57 372 q 108 475 57 432 q 222 529 146 505 l 338 561 l 223 590 q 109 641 152 610 q 58 741 58 680 q 95 833 58 797 q 323 928 107 843 l 65 928 l 65 1041 q 632 1041 401 1041 l 632 876 l 567 876 l 183 711 q 162 686 162 700 q 283 637 162 671 l 454 594 l 549 619 l 549 465 q 297 400 434 433 q 211 246 211 378 q 211 189 211 239 q 211 137 211 165 q 319 22 211 68 l 515 -59 q 621 -188 621 -107 q 512 -319 621 -277 q 330 -350 437 -350 "},"&":{"x_min":64,"x_max":932.34375,"ha":925,"o":"m 395 791 q 482 914 482 849 q 387 1001 482 1001 q 334 985 355 1001 q 308 941 308 969 q 342 860 308 909 q 395 791 346 855 m 663 149 l 359 598 q 214 349 214 494 q 283 152 214 230 q 472 69 353 69 q 663 149 575 69 m 760 0 l 707 78 q 434 -20 593 -20 q 170 85 276 -20 q 64 351 64 195 q 126 558 64 466 q 287 708 177 630 q 229 791 230 790 q 197 887 197 838 q 270 1020 197 969 q 423 1068 335 1068 q 558 1016 502 1068 q 613 885 613 966 q 477 674 613 763 l 735 285 q 745 380 745 333 q 717 543 745 435 l 796 543 q 824 380 824 455 q 794 196 824 277 l 932 0 l 760 0 "},"I":{"x_min":139,"x_max":331,"ha":470,"o":"m 331 0 l 139 0 l 139 1042 l 331 1042 l 331 0 "},"G":{"x_min":58,"x_max":976,"ha":1057,"o":"m 976 488 l 976 135 q 580 -27 792 -27 q 198 128 342 -27 q 58 520 58 281 q 196 901 58 746 q 564 1064 341 1064 q 951 848 824 1064 l 888 805 q 603 996 792 996 q 335 836 426 996 q 265 513 265 706 q 334 205 265 324 q 596 58 420 58 q 801 131 719 58 l 801 488 l 976 488 "},"ΰ":{"x_min":117,"x_max":690,"ha":794,"o":"m 289 771 l 289 271 q 457 78 289 78 q 589 148 551 78 q 614 305 614 198 l 614 771 l 690 771 l 690 252 q 619 50 690 122 q 421 -25 549 -25 q 117 272 117 -25 l 117 771 l 289 771 m 375 822 l 314 822 l 453 1054 l 553 1054 l 375 822 m 265 999 q 314 979 291 999 q 335 929 335 958 q 314 880 335 901 q 265 861 291 861 q 216 880 239 861 q 196 929 196 901 q 216 979 196 958 q 265 999 239 999 m 578 999 q 626 979 604 999 q 648 929 648 958 q 626 880 648 901 q 578 861 604 861 q 529 880 551 861 q 509 929 509 901 q 529 979 509 958 q 578 999 551 999 "},"`":{"x_min":0,"x_max":0,"ha":558},"·":{"x_min":27.671875,"x_max":876.71875,"ha":902,"o":"m 27 0 l 615 964 l 86 964 l 86 1042 l 876 1042 l 290 78 l 867 78 l 867 0 l 27 0 "},"¿":{"x_min":28,"x_max":1163,"ha":1191,"o":"m 1163 0 l 698 0 q 683 58 693 25 q 869 248 808 103 q 921 519 921 364 q 848 831 921 695 q 596 997 762 997 q 342 833 429 997 q 270 519 270 701 q 319 248 270 365 q 507 58 382 101 q 492 0 500 37 l 28 0 l 28 174 l 168 174 q 64 519 64 311 q 214 904 64 747 q 596 1064 368 1064 q 976 904 822 1064 q 1127 519 1127 746 q 1022 174 1127 311 l 1163 174 l 1163 0 "},"ý":{"x_min":19,"x_max":470,"ha":484,"o":"m 161 771 l 332 771 l 332 0 l 161 0 l 161 771 m 198 822 l 137 822 l 276 1054 l 376 1054 l 198 822 m 88 999 q 137 979 114 999 q 158 929 158 958 q 137 880 158 901 q 88 861 114 861 q 39 880 62 861 q 19 929 19 901 q 39 979 19 958 q 88 999 62 999 m 401 999 q 449 979 427 999 q 470 929 470 958 q 449 880 470 901 q 401 861 427 861 q 352 880 374 861 q 332 929 332 901 q 352 979 332 958 q 401 999 374 999 "},"ʹ":{"x_min":177.78125,"x_max":416.671875,"ha":411,"o":"m 238 843 l 177 843 l 316 1075 l 416 1075 l 238 843 "},"º":{"x_min":56,"x_max":794.84375,"ha":821,"o":"m 260 522 l 643 1042 l 762 1042 l 437 596 l 794 0 l 567 0 l 260 522 m 56 0 l 56 1042 l 249 1042 l 249 0 l 56 0 "},"∞":{"x_min":176,"x_max":1152,"ha":1328,"o":"m 705 434 q 918 289 784 289 q 1052 347 1002 289 q 1102 486 1102 402 q 1058 621 1102 565 q 935 681 1013 681 q 789 593 856 681 q 705 434 753 546 m 625 519 q 412 667 544 667 q 277 611 327 667 q 229 469 229 554 q 270 334 229 391 q 394 274 319 274 q 539 361 473 274 q 625 519 581 419 m 653 566 q 903 777 755 777 q 1088 683 1017 777 q 1152 480 1152 596 q 1097 277 1152 361 q 921 182 1035 182 q 771 247 836 182 q 674 384 724 291 q 424 178 567 178 q 239 272 310 178 q 176 475 176 359 q 231 678 176 596 q 408 774 294 774 q 653 566 551 774 "},"φ":{"x_min":42,"x_max":1100,"ha":1143,"o":"m 1100 376 q 993 96 1100 199 q 711 -8 886 -9 q 653 0 725 -8 l 653 -347 l 489 -347 l 489 0 q 459 -4 477 0 q 430 -8 441 -8 q 148 96 255 -8 q 42 376 42 201 q 155 663 42 555 q 448 771 269 771 l 694 771 q 987 663 873 771 q 1100 376 1100 555 m 935 341 q 882 600 935 519 q 653 703 816 703 l 653 66 l 678 60 q 703 58 700 58 q 935 341 935 58 m 489 66 l 489 703 l 466 703 q 254 590 316 703 q 207 341 207 505 q 439 58 207 58 q 465 62 447 58 l 489 66 "},";":{"x_min":57.828125,"x_max":347,"ha":469,"o":"m 255 392 q 188 418 214 392 q 162 483 162 444 q 189 549 162 521 q 255 577 217 577 q 320 549 292 577 q 347 483 347 522 q 320 418 347 444 q 255 392 294 392 m 57 -296 l 155 31 q 185 115 175 99 q 254 163 211 163 q 308 143 286 163 q 331 90 331 122 q 276 -24 331 44 l 57 -296 "},"6":{"x_min":28,"x_max":697,"ha":741,"o":"m 521 318 q 375 541 521 541 q 243 438 286 541 q 209 261 209 360 q 236 116 209 175 q 350 41 272 41 q 486 141 440 41 q 521 318 521 218 m 265 554 q 443 620 339 620 q 631 542 562 620 q 697 347 697 466 q 601 85 697 189 q 347 -26 502 -26 q 115 64 203 -26 q 28 297 28 153 q 93 564 28 424 l 314 1042 l 490 1042 l 265 554 "},"ϊ":{"x_min":26,"x_max":389,"ha":411,"o":"m 119 771 l 290 771 l 290 0 l 119 0 l 119 771 m 95 999 q 144 979 121 999 q 165 929 165 958 q 144 880 165 901 q 95 861 121 861 q 46 880 66 861 q 26 929 26 901 q 46 979 26 958 q 95 999 66 999 m 319 999 q 369 979 347 999 q 389 929 389 957 q 369 880 389 902 q 319 861 347 861 q 270 880 292 861 q 251 929 251 902 q 270 979 251 957 q 319 999 292 999 "},"ά":{"x_min":34.71875,"x_max":708.328125,"ha":738,"o":"m 177 236 l 109 0 l 34 0 l 223 673 q 359 793 256 793 q 511 663 473 793 l 708 0 l 533 0 l 463 236 l 177 236 m 195 303 l 445 303 l 354 630 q 318 674 344 674 q 288 630 298 674 l 195 303 m 394 843 l 334 843 l 472 1075 l 573 1075 l 394 843 "},"n":{"x_min":119,"x_max":696,"ha":818,"o":"m 194 0 l 119 0 l 119 643 q 231 793 119 793 q 396 664 326 793 q 602 301 523 434 l 608 300 l 619 305 q 622 771 622 322 l 696 771 l 696 65 q 689 4 696 18 q 640 -25 676 -25 q 573 22 599 -25 l 212 637 l 206 640 l 196 637 q 194 0 194 632 "},"¤":{"x_min":27.78125,"x_max":900,"ha":926,"o":"m 405 723 l 119 0 l 27 0 l 455 1062 l 900 0 l 694 0 l 405 723 "},"∂":{"x_min":90,"x_max":729,"ha":812,"o":"m 587 471 q 608 721 608 605 q 490 949 608 949 q 399 899 452 949 q 313 849 345 849 q 273 865 290 849 q 257 905 257 882 q 322 995 257 959 q 436 1025 376 1025 q 667 873 591 1025 q 729 584 729 754 q 647 200 729 372 q 352 -19 542 -19 q 159 69 231 -19 q 90 276 90 154 q 167 512 90 411 q 383 621 251 621 q 587 471 533 621 m 552 376 q 524 504 552 453 q 417 567 488 567 q 257 433 310 567 q 219 207 219 337 q 352 21 219 21 q 512 154 457 21 q 552 376 552 254 "},"κ":{"x_min":119,"x_max":785.828125,"ha":783,"o":"m 290 0 l 119 0 l 119 1257 l 290 1257 l 290 379 l 606 771 l 702 771 l 438 444 l 785 0 l 571 0 l 290 359 l 290 0 "},"p":{"x_min":119,"x_max":816,"ha":872,"o":"m 290 66 q 407 58 356 58 q 641 341 641 58 q 369 703 641 703 l 290 703 l 290 66 m 290 0 l 290 -313 l 119 -313 l 119 771 l 388 771 q 692 668 574 771 q 816 376 816 559 q 698 92 816 199 q 406 -9 584 -9 q 346 -4 385 -9 q 290 0 309 0 "},"‡":{"x_min":193,"x_max":603,"ha":797,"o":"m 402 1012 l 341 1012 l 480 1244 l 580 1244 l 402 1012 m 523 834 q 468 857 490 834 q 443 913 443 881 q 466 970 443 943 q 523 994 490 994 q 579 968 554 994 q 603 913 603 942 q 579 857 603 881 q 523 834 557 834 m 272 834 q 216 856 238 834 q 193 913 193 882 q 216 970 193 943 q 272 994 240 994 q 329 970 302 994 q 353 913 353 943 q 329 857 353 881 q 272 834 305 834 "},"√":{"x_min":44.265625,"x_max":1004,"ha":1004,"o":"m 1004 1284 l 1004 1220 l 910 1220 l 448 -32 l 406 -32 l 155 664 l 62 630 l 44 683 l 248 754 l 455 187 l 862 1284 l 1004 1284 "},"S":{"x_min":77.609375,"x_max":742,"ha":806,"o":"m 155 199 q 357 59 225 59 q 493 111 440 59 q 546 247 546 164 q 425 417 546 350 l 200 535 q 79 754 79 618 q 172 980 79 896 q 404 1064 261 1064 q 711 879 630 1064 l 643 833 q 443 985 591 985 q 318 935 366 985 q 271 808 271 885 q 393 643 271 707 l 619 529 q 742 297 742 446 q 641 61 742 150 q 398 -26 546 -26 q 77 143 190 -26 l 155 199 "},"ο":{"x_min":56,"x_max":827,"ha":884,"o":"m 440 31 q 607 159 550 31 q 648 383 648 256 q 607 606 648 509 q 440 736 550 736 q 275 606 331 736 q 233 383 233 511 q 275 161 233 256 q 440 31 331 31 m 464 -25 q 169 95 286 -25 q 56 394 56 215 q 150 674 56 566 q 417 793 250 793 q 711 673 596 793 q 827 373 827 556 q 732 91 827 199 q 464 -25 633 -25 "},"/":{"x_min":-1.390625,"x_max":426.390625,"ha":425,"o":"m -1 -147 l 344 1064 l 426 1064 l 79 -147 l -1 -147 "},"͵":{"x_min":54.171875,"x_max":301.390625,"ha":411,"o":"m 240 63 l 301 63 l 154 -163 l 54 -163 l 240 63 "},"Τ":{"x_min":28,"x_max":766,"ha":794,"o":"m 302 0 l 302 964 l 28 964 l 28 1042 l 766 1042 l 766 964 l 492 964 l 492 0 l 302 0 "},"y":{"x_min":11.109375,"x_max":708.328125,"ha":692,"o":"m 313 3 l 11 771 l 190 771 l 405 230 l 630 771 l 708 771 l 263 -313 l 180 -313 l 313 3 "},"≈":{"x_min":139,"x_max":1192,"ha":1330,"o":"m 1192 352 q 889 239 1028 239 q 664 293 811 239 q 439 347 516 347 q 139 223 320 347 l 139 325 q 440 439 307 439 q 666 384 519 439 q 890 332 816 332 q 1192 455 1014 332 l 1192 352 m 1192 626 q 890 514 1033 514 q 665 566 812 514 q 439 621 516 621 q 139 497 316 621 l 139 600 q 440 713 302 713 q 666 660 516 713 q 890 607 811 607 q 1192 728 1016 607 l 1192 626 "},"ΐ":{"x_min":19,"x_max":470,"ha":484,"o":"m 161 771 l 332 771 l 332 0 l 161 0 l 161 771 m 198 822 l 137 822 l 276 1054 l 376 1054 l 198 822 m 88 999 q 137 979 114 999 q 158 929 158 958 q 137 880 158 901 q 88 861 114 861 q 39 880 62 861 q 19 929 19 901 q 39 979 19 958 q 88 999 62 999 m 401 999 q 449 979 427 999 q 470 929 470 958 q 449 880 470 901 q 401 861 427 861 q 352 880 374 861 q 332 929 332 901 q 352 979 332 958 q 401 999 374 999 "},"Π":{"x_min":56,"x_max":876,"ha":930,"o":"m 249 964 l 249 0 l 56 0 l 56 1042 l 876 1042 l 876 0 l 684 0 l 684 964 l 249 964 "},"g":{"x_min":56,"x_max":748,"ha":830,"o":"m 748 386 l 748 -313 l 598 -313 l 598 42 q 421 -28 511 -28 q 153 101 258 -28 q 56 388 56 220 q 158 672 56 556 q 432 793 267 793 q 723 620 645 793 l 659 585 q 460 729 591 729 q 235 385 235 729 q 282 164 235 259 q 452 44 340 44 q 598 276 598 44 q 598 334 598 309 l 598 386 l 748 386 "},"²":{"x_min":204,"x_max":1125,"ha":1329,"o":"m 1125 116 l 1125 26 l 204 26 l 204 116 l 1125 116 m 1125 831 l 363 578 l 1125 327 l 1125 229 l 204 539 l 204 618 l 1125 927 l 1125 831 "},"–":{"x_min":239,"x_max":700,"ha":942,"o":"m 239 593 q 307 757 239 689 q 470 824 373 824 q 633 755 566 824 q 700 593 700 689 q 633 431 700 497 q 469 363 565 363 q 307 431 373 363 q 239 593 239 501 "},"ë":{"x_min":119,"x_max":785.828125,"ha":783,"o":"m 290 0 l 119 0 l 119 1257 l 290 1257 l 290 379 l 606 771 l 702 771 l 438 444 l 785 0 l 571 0 l 290 359 l 290 0 "},"J":{"x_min":-10,"x_max":368,"ha":497,"o":"m -10 65 q 135 92 99 65 q 176 231 176 124 l 176 1041 l 368 1041 l 368 256 q 298 53 368 115 q 89 -6 234 -6 q -10 -1 19 -6 l -10 65 "},"Ã":{"x_min":58,"x_max":1123,"ha":1183,"o":"m 916 519 q 843 831 916 695 q 589 997 753 997 q 335 833 424 997 q 265 519 265 699 q 335 204 265 335 q 589 41 424 41 q 843 204 756 41 q 916 519 916 335 m 589 -27 q 209 132 362 -27 q 58 519 58 291 q 210 905 58 745 q 589 1064 360 1064 q 970 905 818 1064 q 1123 519 1123 745 q 970 131 1123 291 q 589 -27 818 -27 "},"©":{"x_min":93,"x_max":1236,"ha":1329,"o":"m 829 710 q 773 803 817 768 q 666 837 729 837 q 513 746 563 837 q 473 563 473 675 q 514 383 473 453 q 666 295 566 295 q 836 435 807 295 l 936 435 q 846 272 936 336 q 661 214 766 214 q 434 318 516 214 q 362 561 362 411 q 436 811 362 713 q 668 918 520 918 q 842 865 768 918 q 929 710 920 807 l 829 710 m 1169 565 q 1021 924 1169 778 q 663 1070 876 1070 q 308 922 455 1070 q 161 565 161 775 q 309 210 161 359 q 663 62 458 62 q 1021 207 874 62 q 1169 565 1169 358 m 663 1138 q 1070 972 905 1138 q 1236 565 1236 804 q 1069 159 1236 327 q 663 -7 902 -7 q 261 161 427 -7 q 93 565 93 329 q 259 969 93 800 q 663 1138 430 1138 "},"ώ":{"x_min":44,"x_max":1116,"ha":1158,"o":"m 609 844 l 549 844 l 688 1076 l 788 1076 l 609 844 m 543 770 l 543 306 q 516 147 543 199 q 384 77 480 77 q 216 271 216 77 l 216 770 l 44 770 l 44 272 q 348 -26 44 -26 q 579 92 513 -26 q 812 -26 647 -26 q 1116 272 1116 -26 l 1116 770 l 944 770 l 944 271 q 776 77 944 77 q 644 147 680 77 q 618 306 618 199 l 618 770 l 543 770 "},"≥":{"x_min":204,"x_max":1125,"ha":1329,"o":"m 1125 116 l 1125 26 l 204 26 l 204 116 l 1125 116 m 1125 618 l 1125 539 l 204 229 l 204 327 l 966 578 l 204 831 l 204 927 l 1125 618 "},"D":{"x_min":135,"x_max":1038,"ha":1095,"o":"m 325 964 l 325 78 l 440 78 q 594 94 533 78 q 782 264 721 128 q 831 523 831 373 q 721 848 831 737 q 398 964 609 964 l 325 964 m 135 0 l 135 1042 l 389 1042 q 843 914 671 1042 q 1038 497 1038 769 q 896 136 1038 272 q 528 0 756 0 l 135 0 "},"ÿ":{"x_min":199,"x_max":1131,"ha":1330,"o":"m 1131 668 l 1131 578 l 199 578 l 199 668 l 1131 668 "},"$":{"x_min":44,"x_max":705,"ha":752,"o":"m 370 446 l 307 78 q 360 78 359 78 q 481 133 435 78 q 526 260 526 185 q 370 446 526 399 m 360 633 l 423 977 q 407 978 414 977 q 392 980 400 980 q 260 935 311 980 q 213 807 213 889 q 360 633 213 681 m 231 -109 l 251 11 q 53 169 140 44 l 114 219 q 265 90 181 115 l 331 461 q 131 561 197 505 q 44 758 44 639 q 136 971 44 888 q 359 1051 227 1051 q 432 1042 374 1051 l 449 1136 l 494 1136 l 475 1032 q 655 892 573 1009 l 596 836 q 463 964 539 940 l 403 619 q 705 305 705 529 q 593 79 705 167 q 349 -1 491 -1 q 293 1 311 -1 l 272 -109 l 231 -109 "},"w":{"x_min":47.21875,"x_max":1090.28125,"ha":1119,"o":"m 384 -25 q 279 30 318 -25 q 230 147 254 65 l 47 771 l 222 771 l 323 409 q 423 86 412 97 l 437 80 l 448 86 q 531 370 454 90 l 415 771 l 590 771 q 791 84 670 484 l 802 80 l 815 86 q 918 409 827 100 l 1019 771 l 1090 771 l 908 148 q 859 31 881 65 q 752 -25 819 -25 q 651 26 693 -25 q 597 140 616 70 q 565 255 584 177 q 534 140 545 177 q 483 26 515 69 q 384 -25 444 -25 "},"∫":{"x_min":36,"x_max":758,"ha":794,"o":"m 236 -208 q 328 29 302 -208 q 328 308 328 114 l 328 636 q 391 1019 328 871 q 624 1206 468 1206 q 719 1179 681 1206 q 758 1095 758 1147 q 733 1034 758 1056 q 669 1011 709 1011 q 602 1039 627 1011 q 579 1110 579 1067 l 574 1121 l 563 1130 q 483 902 504 1130 q 466 635 466 827 l 466 300 q 394 -96 466 60 q 166 -289 319 -289 q 77 -262 112 -289 q 36 -183 36 -233 q 61 -119 36 -144 q 126 -94 86 -94 q 195 -123 175 -94 q 215 -178 207 -141 q 236 -208 222 -208 "},"\\":{"x_min":-1.390625,"x_max":426.390625,"ha":425,"o":"m 426 -147 l 344 -147 l -1 1064 l 77 1064 l 426 -147 "},"Ì":{"x_min":31.9375,"x_max":923.609375,"ha":950,"o":"m 31 0 l 379 493 l 33 1042 l 252 1042 l 500 650 l 776 1042 l 886 1042 l 551 575 l 923 0 l 702 0 l 434 419 l 141 0 l 31 0 "},"Ç":{"x_min":62,"x_max":650,"ha":739,"o":"m 650 73 l 394 258 l 394 430 l 650 618 l 650 477 l 471 344 l 650 209 l 650 73 m 318 73 l 62 258 l 62 430 l 318 618 l 318 477 l 138 344 l 318 209 l 318 73 "},"ς":{"x_min":85,"x_max":605,"ha":672,"o":"m 103 14 l 103 78 q 262 56 190 56 q 438 174 438 56 q 346 299 438 244 q 175 397 303 326 q 85 558 85 464 q 178 738 85 678 q 383 788 257 788 q 538 774 428 788 l 538 708 q 380 724 424 724 q 286 700 325 724 q 239 621 239 674 q 333 504 239 561 l 510 397 q 605 226 605 323 q 504 43 605 102 q 290 -7 422 -7 q 103 14 217 -7 "},"C":{"x_min":58,"x_max":978.890625,"ha":1005,"o":"m 978 246 q 809 45 919 117 q 556 -27 696 -27 q 191 137 330 -27 q 58 520 58 291 q 196 901 58 745 q 565 1064 341 1064 q 951 848 824 1064 l 888 805 q 603 996 792 996 q 335 836 426 996 q 265 513 265 706 q 334 205 265 324 q 596 58 420 58 q 916 287 810 58 l 978 246 "},"!":{"x_min":160,"x_max":346,"ha":506,"o":"m 253 -26 q 187 1 212 -26 q 160 67 160 29 q 187 133 160 105 q 253 160 212 160 q 318 133 291 160 q 346 67 346 105 q 318 1 346 29 q 253 -26 290 -26 m 235 207 l 172 866 q 167 962 167 926 q 254 1067 167 1067 q 319 1036 293 1067 q 342 966 342 1007 q 333 866 342 947 l 271 207 l 235 207 "},"ç":{"x_min":28.84375,"x_max":709.78125,"ha":728,"o":"m 490 -206 q 431 -33 490 -155 l 351 123 q 229 -174 229 -90 q 278 -259 229 -230 q 381 -286 322 -286 q 490 -206 490 -286 m 158 -172 q 209 22 158 -92 q 310 200 255 125 l 28 771 l 229 771 l 413 395 l 623 771 q 695 774 657 774 l 709 771 l 458 308 q 569 87 544 141 q 632 -144 632 -55 q 547 -292 632 -233 q 376 -351 467 -351 q 227 -303 288 -351 q 158 -172 158 -253 "},"ͺ":{"x_min":108.328125,"x_max":325,"ha":411,"o":"m 108 -17 l 279 -17 l 325 -167 l 154 -167 l 108 -17 "},"È":{"x_min":97,"x_max":685,"ha":739,"o":"m 429 73 l 429 209 l 608 344 l 429 477 l 429 618 l 685 430 l 685 258 l 429 73 m 97 73 l 97 209 l 273 344 l 97 477 l 97 618 l 353 430 l 353 258 l 97 73 "},"X":{"x_min":4.171875,"x_max":897.21875,"ha":888,"o":"m 4 0 l 352 493 l 5 1042 l 225 1042 l 473 650 l 748 1042 l 858 1042 l 525 575 l 897 0 l 676 0 l 408 419 l 115 0 l 4 0 "},"ô":{"x_min":53,"x_max":550,"ha":604,"o":"m 217 0 l 217 703 l 53 703 l 53 771 l 550 771 l 550 703 l 386 703 l 386 0 l 217 0 "},"}":{"x_min":129,"x_max":665,"ha":797,"o":"m 665 461 l 665 364 q 616 364 637 364 q 466 293 509 364 q 437 122 437 237 q 437 32 437 112 q 437 -58 437 -48 q 362 -284 437 -231 q 129 -322 302 -322 l 129 -226 q 177 -226 158 -226 q 297 -171 263 -226 q 323 -37 323 -131 q 323 54 323 12 q 323 150 323 119 q 349 311 323 248 q 480 412 388 387 q 349 515 387 437 q 325 679 325 577 q 325 776 325 711 q 325 870 325 841 q 289 1016 325 977 q 129 1053 256 1053 l 129 1152 l 156 1152 q 360 1110 295 1152 q 440 837 440 1058 q 440 745 440 783 q 440 676 440 708 q 489 502 440 548 q 655 461 534 461 q 665 461 659 461 "},"â":{"x_min":54,"x_max":751,"ha":791,"o":"m 751 376 q 690 161 751 254 q 515 26 627 68 q 372 0 452 0 l 229 0 l 225 0 l 225 -347 l 54 -347 l 54 1042 l 363 1042 q 657 829 657 1042 q 629 751 657 794 q 564 705 599 705 q 751 376 751 590 m 492 830 q 428 933 492 895 q 304 964 375 964 l 225 964 l 225 710 l 298 710 q 423 736 371 710 q 492 830 492 766 m 576 343 q 505 564 576 483 q 293 650 432 650 q 259 648 275 650 q 225 646 229 646 l 225 66 q 323 60 263 60 q 576 343 576 60 "},"ø":{"x_min":27.78125,"x_max":712.5,"ha":739,"o":"m 126 -347 l 33 -347 l 308 154 l 27 773 l 227 773 l 411 358 l 620 773 l 706 773 l 455 268 l 712 -347 l 511 -347 l 350 58 l 126 -347 "},"Δ":{"x_min":27.78125,"x_max":900,"ha":926,"o":"m 145 64 l 672 64 l 405 712 l 145 64 m 27 0 l 455 1062 l 900 0 l 27 0 "},"Ä":{"x_min":56,"x_max":785,"ha":828,"o":"m 249 496 l 333 496 q 592 720 592 496 q 333 975 592 975 l 249 975 l 249 496 m 56 0 l 56 1042 l 428 1042 q 680 968 586 1042 q 785 731 785 884 q 698 508 785 580 q 492 437 628 449 q 249 433 444 433 l 249 0 l 56 0 "},"—":{"x_min":18.453125,"x_max":1000,"ha":1039,"o":"m 568 0 l 782 259 q 885 444 885 385 q 846 526 885 495 q 757 554 810 554 q 630 404 630 554 l 580 404 l 580 429 q 636 556 580 512 q 775 597 689 597 q 923 555 864 597 q 995 426 995 509 q 922 265 995 351 l 739 43 l 1000 43 l 1000 0 l 568 0 m 105 -26 l 18 -26 l 729 1064 l 815 1064 l 105 -26 m 99 457 l 99 1005 q 22 999 49 999 l 22 1039 q 205 1052 39 1039 l 205 457 l 99 457 "},"N":{"x_min":131,"x_max":939,"ha":1071,"o":"m 131 0 l 131 1042 l 308 1042 l 847 322 l 847 1042 l 939 1042 l 939 0 l 847 0 l 224 830 l 224 0 l 131 0 "},"2":{"x_min":27.953125,"x_max":713,"ha":776,"o":"m 27 0 l 366 464 q 473 619 452 583 q 528 794 528 715 q 472 937 528 883 q 328 988 418 988 q 164 905 216 988 q 122 733 122 839 q 122 721 122 726 l 46 721 l 46 768 q 130 989 46 912 q 356 1064 210 1064 q 600 986 501 1064 q 705 761 705 900 q 590 473 705 630 l 299 78 l 713 78 l 713 0 l 27 0 "},"ü":{"x_min":117,"x_max":690,"ha":794,"o":"m 289 771 l 289 271 q 457 78 289 78 q 589 148 551 78 q 614 305 614 198 l 614 771 l 690 771 l 690 252 q 619 50 690 122 q 421 -25 548 -25 q 117 272 117 -25 l 117 771 l 289 771 m 272 999 q 321 979 298 999 q 342 929 342 958 q 321 880 342 901 q 272 861 298 861 q 223 880 243 861 q 203 929 203 901 q 223 979 203 958 q 272 999 243 999 m 544 999 q 593 979 571 999 q 613 929 613 959 q 593 880 613 900 q 544 861 571 861 q 494 880 516 861 q 475 929 475 902 q 494 979 475 957 q 544 999 516 999 "},"Ó":{"x_min":116.78125,"x_max":699,"ha":780,"o":"m 426 602 l 522 930 q 553 1015 541 994 q 622 1064 579 1064 q 676 1043 655 1064 q 699 990 699 1022 q 644 877 699 947 l 426 602 m 116 602 l 209 930 q 312 1064 250 1064 q 366 1043 345 1064 q 389 990 389 1022 q 333 877 389 947 l 116 602 "},"˜":{"x_min":65,"x_max":1984,"ha":2052,"o":"m 1834 277 q 1699 512 1834 512 q 1563 288 1563 512 q 1699 54 1563 54 q 1834 277 1834 54 m 1412 284 q 1495 486 1412 405 q 1699 568 1580 568 q 1900 486 1818 568 q 1984 284 1984 402 q 1902 81 1984 163 q 1699 0 1817 0 q 1493 81 1578 0 q 1412 284 1412 163 m 1183 277 q 1045 512 1183 512 q 911 288 911 512 q 1045 54 911 54 q 1183 277 1183 54 m 761 284 q 844 486 761 402 q 1045 568 929 568 q 1249 486 1165 568 q 1333 284 1333 402 q 1249 81 1333 165 q 1045 0 1165 0 q 842 81 927 0 q 761 284 761 163 m 403 -26 l 309 -26 l 994 1064 l 1090 1064 l 403 -26 m 488 752 q 352 986 488 986 q 218 762 218 986 q 352 528 218 528 q 488 752 488 528 m 65 758 q 148 959 65 877 q 352 1042 233 1042 q 554 959 470 1042 q 637 758 637 879 q 553 557 637 640 q 352 474 470 474 q 149 557 232 474 q 65 758 65 641 "},"Η":{"x_min":56,"x_max":875,"ha":929,"o":"m 249 492 l 249 0 l 56 0 l 56 1042 l 249 1042 l 249 568 l 685 568 l 685 1042 l 875 1042 l 875 0 l 685 0 l 685 492 l 249 492 "},"ß":{"x_min":16.5,"x_max":1239,"ha":1278,"o":"m 1239 0 l 776 0 q 759 58 767 30 q 947 249 884 101 q 997 519 997 365 q 926 831 997 698 q 672 997 837 997 q 417 833 505 997 q 347 519 347 699 q 397 248 347 361 q 583 58 459 103 l 567 0 l 104 0 l 104 174 l 244 174 q 140 519 140 311 q 292 905 140 746 q 672 1064 444 1064 q 1052 904 898 1064 q 1203 519 1203 747 q 1100 174 1203 312 l 1239 174 l 1239 0 m 87 781 l 16 781 l 178 1053 l 296 1053 l 87 781 "},"s":{"x_min":85,"x_max":605,"ha":672,"o":"m 103 14 l 103 78 q 262 56 190 56 q 438 174 438 56 q 346 299 438 244 q 175 397 303 326 q 85 558 85 464 q 178 738 85 678 q 383 788 257 788 q 538 774 428 788 l 538 708 q 380 724 424 724 q 286 700 325 724 q 239 621 239 674 q 333 504 239 561 l 510 397 q 605 226 605 323 q 504 43 605 102 q 290 -7 422 -7 q 103 14 217 -7 "},"?":{"x_min":72,"x_max":630,"ha":712,"o":"m 319 -27 q 252 0 280 -27 q 226 66 226 29 q 252 132 226 103 q 319 159 278 159 q 385 132 357 159 q 412 66 412 106 q 385 0 412 27 q 319 -27 355 -27 m 296 205 l 276 351 q 265 498 265 446 q 317 570 265 526 q 416 665 395 637 q 469 822 469 734 q 421 948 469 899 q 298 997 373 997 q 141 825 141 997 l 72 825 l 72 831 q 142 1004 72 941 q 321 1064 210 1064 q 538 993 452 1064 q 630 788 630 916 q 580 619 630 688 q 477 522 550 579 q 389 434 407 469 q 357 319 370 396 q 341 205 356 309 l 296 205 "},"c":{"x_min":56,"x_max":733.609375,"ha":763,"o":"m 733 169 q 428 -25 630 -25 q 154 99 261 -25 q 56 388 56 219 q 158 672 56 556 q 432 793 267 793 q 722 620 644 793 l 658 585 q 460 729 590 729 q 235 385 235 729 q 280 164 235 257 q 453 44 339 44 q 672 207 583 44 l 733 169 "},"¶":{"x_min":56,"x_max":699,"ha":753,"o":"m 56 0 l 56 1042 l 699 1042 l 699 964 l 249 964 l 249 582 l 667 582 l 667 504 l 249 504 l 249 78 l 699 78 l 699 0 l 56 0 "},"Ή":{"x_min":16.671875,"x_max":1195,"ha":1248,"o":"m 568 492 l 568 0 l 375 0 l 375 1042 l 568 1042 l 568 568 l 1003 568 l 1003 1042 l 1195 1042 l 1195 0 l 1003 0 l 1003 492 l 568 492 m 87 781 l 16 781 l 179 1053 l 297 1053 l 87 781 "},"Μ":{"x_min":56,"x_max":1055,"ha":1109,"o":"m 56 0 l 56 1042 l 274 1042 l 567 329 l 850 1042 l 1055 1042 l 1055 0 l 866 0 l 866 837 l 514 -37 l 145 837 l 145 0 l 56 0 "},"(":{"x_min":218,"x_max":508.5,"ha":609,"o":"m 508 1025 q 371 343 371 736 q 508 -338 371 -59 l 418 -377 q 268 -31 318 -225 q 218 343 218 155 q 418 1066 218 762 l 508 1025 "},"◊":{"x_min":4.171875,"x_max":783.328125,"ha":789,"o":"m 394 1098 l 94 461 l 394 -181 l 694 461 l 394 1098 m 394 1287 l 783 461 l 394 -372 l 4 461 l 394 1287 "},"α":{"x_min":34.71875,"x_max":708.328125,"ha":738,"o":"m 177 236 l 109 0 l 34 0 l 223 673 q 359 793 256 793 q 511 663 473 793 l 708 0 l 533 0 l 463 236 l 177 236 m 195 303 l 445 303 l 354 630 q 318 674 344 674 q 288 630 298 674 l 195 303 "},"γ":{"x_min":28.84375,"x_max":709.78125,"ha":728,"o":"m 490 -206 q 431 -33 490 -155 l 351 123 q 229 -174 229 -90 q 278 -259 229 -230 q 381 -286 322 -286 q 490 -206 490 -286 m 158 -172 q 209 22 158 -92 q 310 200 255 125 l 28 771 l 229 771 l 413 395 l 623 771 q 695 774 657 774 l 709 771 l 458 308 q 569 87 544 141 q 632 -144 632 -55 q 547 -292 632 -233 q 376 -351 467 -351 q 227 -303 288 -351 q 158 -172 158 -253 "},"­":{"x_min":199,"x_max":1131,"ha":1330,"o":"m 1011 865 l 858 670 l 1131 670 l 1131 581 l 801 581 l 636 371 l 1131 371 l 1131 281 l 579 281 l 383 32 l 314 86 l 467 281 l 199 281 l 199 371 l 525 371 l 690 581 l 199 581 l 199 670 l 747 670 l 943 920 l 1011 865 "},":":{"x_min":142,"x_max":328,"ha":470,"o":"m 235 -22 q 169 4 196 -22 q 142 69 142 32 q 169 136 142 108 q 235 164 197 164 q 301 136 275 164 q 328 69 328 107 q 300 4 328 32 q 235 -22 273 -22 m 235 392 q 168 418 194 392 q 142 483 142 443 q 169 549 142 521 q 234 577 197 577 q 300 549 272 577 q 328 483 328 521 q 300 418 328 446 q 235 392 273 392 "},"Û":{"x_min":119,"x_max":640,"ha":701,"o":"m 119 632 q 149 744 119 714 q 263 771 178 771 l 631 771 l 631 703 l 369 703 q 313 694 327 703 q 290 641 290 679 l 290 447 l 570 447 l 570 372 l 290 372 l 290 128 q 317 73 290 86 q 380 67 334 67 l 640 67 l 640 0 l 235 0 q 138 37 160 0 q 119 139 119 65 l 119 632 m 408 843 l 346 843 l 485 1075 l 585 1075 l 408 843 "},"V":{"x_min":-15.28125,"x_max":830.5625,"ha":821,"o":"m 416 -26 l -15 1042 l 188 1042 l 465 332 l 729 1042 l 830 1042 l 416 -26 "}," ":{"x_min":83,"x_max":734,"ha":820,"o":"m 486 -231 l 333 -231 l 333 644 l 83 644 l 83 726 l 333 726 l 333 1042 l 486 1042 l 486 726 l 734 726 l 734 644 l 486 644 l 486 -231 "},"@":{"x_min":87,"x_max":1508,"ha":1596,"o":"m 1005 657 l 1050 752 l 1136 752 l 1026 309 q 1017 246 1017 267 q 1103 176 1017 176 q 1329 324 1238 176 q 1409 597 1409 453 q 1238 945 1409 820 q 853 1057 1082 1057 q 378 870 568 1057 q 188 401 188 684 q 367 -5 188 144 q 796 -146 535 -146 q 1288 0 1074 -146 l 1324 -51 q 809 -224 1089 -224 q 303 -65 503 -224 q 87 406 87 108 q 318 937 87 730 q 868 1136 542 1136 q 1306 1002 1127 1136 q 1508 606 1508 855 q 1392 256 1508 405 q 1075 94 1268 94 q 920 223 920 94 q 920 232 920 227 q 690 94 840 94 q 445 352 445 94 q 542 643 445 518 q 810 780 649 780 q 1005 657 951 780 m 982 556 q 929 661 969 621 q 821 705 883 705 q 618 584 693 705 q 555 346 555 482 q 591 220 555 268 q 707 169 629 169 q 864 234 803 169 q 940 387 915 292 l 982 556 "},"¾":{"x_min":56,"x_max":988,"ha":1042,"o":"m 665 0 l 474 0 l 474 279 l 449 279 q 424 277 425 277 q 142 388 236 277 q 56 681 56 490 l 56 1042 l 249 1042 l 249 715 q 283 488 249 556 q 474 388 333 388 l 474 1042 l 664 1042 l 664 387 q 858 485 805 387 q 895 715 895 555 l 895 1042 l 988 1042 l 988 680 q 914 401 988 508 q 664 279 829 279 q 665 0 664 9 "},"ʼ":{"x_min":177.78125,"x_max":416.671875,"ha":411,"o":"m 238 843 l 177 843 l 316 1075 l 416 1075 l 238 843 "},"i":{"x_min":107,"x_max":306,"ha":412,"o":"m 107 990 q 136 1061 107 1032 q 207 1091 165 1091 q 276 1061 247 1091 q 306 990 306 1032 q 276 921 306 950 q 207 892 247 892 q 136 921 165 892 q 107 990 107 950 m 119 771 l 290 771 l 290 0 l 119 0 l 119 771 "},"Ί":{"x_min":16.28125,"x_max":568,"ha":635,"o":"m 568 0 l 376 0 l 376 1042 l 568 1042 l 568 0 m 87 781 l 16 781 l 178 1053 l 296 1053 l 87 781 "},"≤":{"x_min":204,"x_max":1125,"ha":1329,"o":"m 1125 116 l 1125 26 l 204 26 l 204 116 l 1125 116 m 1125 831 l 363 578 l 1125 327 l 1125 229 l 204 539 l 204 618 l 1125 927 l 1125 831 "},"υ":{"x_min":117,"x_max":690,"ha":794,"o":"m 289 771 l 289 271 q 457 78 289 78 q 589 148 551 78 q 614 305 614 198 l 614 771 l 690 771 l 690 252 q 619 50 690 122 q 421 -25 548 -25 q 117 272 117 -25 l 117 771 l 289 771 "},"m":{"x_min":128,"x_max":904,"ha":1033,"o":"m 128 0 l 128 661 q 255 793 128 793 q 400 666 361 793 l 521 269 l 636 685 q 773 793 665 793 q 904 649 904 793 l 904 0 l 739 0 l 739 656 q 722 672 734 670 q 708 666 716 672 q 618 369 690 631 l 530 43 q 473 -25 512 -25 q 415 29 432 -25 l 233 638 q 217 672 225 672 q 202 641 202 666 l 202 0 l 128 0 "},"á":{"x_min":34.71875,"x_max":708.328125,"ha":738,"o":"m 177 236 l 109 0 l 34 0 l 223 673 q 359 793 256 793 q 511 663 473 793 l 708 0 l 533 0 l 463 236 l 177 236 m 195 303 l 445 303 l 354 630 q 318 674 344 674 q 288 630 298 674 l 195 303 "},"×":{"x_min":16.671875,"x_max":1195,"ha":1248,"o":"m 568 492 l 568 0 l 375 0 l 375 1042 l 568 1042 l 568 568 l 1003 568 l 1003 1042 l 1195 1042 l 1195 0 l 1003 0 l 1003 492 l 568 492 m 87 781 l 16 781 l 179 1053 l 297 1053 l 87 781 "},"K":{"x_min":135,"x_max":873.828125,"ha":866,"o":"m 339 522 l 723 1042 l 841 1042 l 518 596 l 873 0 l 646 0 l 339 522 m 135 0 l 135 1042 l 328 1042 l 328 0 l 135 0 "},"7":{"x_min":-26,"x_max":664.28125,"ha":632,"o":"m 43 0 l 455 964 l -26 964 l -26 1042 l 664 1042 l 225 0 l 43 0 "},"¨":{"x_min":93,"x_max":1236,"ha":1329,"o":"m 659 831 l 547 831 l 547 603 l 662 603 q 780 619 741 603 q 839 712 839 644 q 659 831 839 831 m 679 902 q 953 722 953 902 q 911 605 953 651 q 800 547 869 559 l 946 247 l 823 247 l 686 532 l 547 532 l 547 247 l 436 247 l 436 902 l 679 902 m 1169 561 q 1023 922 1169 775 q 663 1070 876 1070 q 308 922 455 1070 q 161 565 161 775 q 308 210 161 360 q 662 62 455 62 q 1020 207 869 62 q 1169 561 1169 353 m 663 1138 q 1069 971 902 1138 q 1236 565 1236 804 q 1067 159 1236 327 q 663 -7 901 -7 q 261 161 427 -7 q 93 565 93 327 q 259 969 93 800 q 663 1138 430 1138 "},"Y":{"x_min":-40,"x_max":851.609375,"ha":811,"o":"m 310 0 l 310 504 l -40 1042 l 189 1042 l 451 614 l 733 1042 l 851 1042 l 503 532 l 503 0 l 310 0 "},"E":{"x_min":135,"x_max":779.390625,"ha":867,"o":"m 135 0 l 135 1042 l 779 1042 l 779 964 l 328 964 l 328 582 l 747 582 l 747 504 l 328 504 l 328 78 l 779 78 l 779 0 l 135 0 "},"Ô":{"x_min":81,"x_max":354.609375,"ha":469,"o":"m 354 1064 l 258 737 q 228 651 239 675 q 158 603 200 603 q 103 623 125 603 q 81 676 81 646 q 136 790 81 722 l 354 1064 "},"‹":{"x_min":177.78125,"x_max":416.671875,"ha":411,"o":"m 238 843 l 177 843 l 316 1075 l 416 1075 l 238 843 "},"Ï":{"x_min":49,"x_max":1007,"ha":1063,"o":"m 548 163 l 548 518 q 495 608 548 564 q 392 653 445 653 q 244 539 291 653 q 207 340 207 451 q 244 142 207 225 q 392 29 291 29 q 493 70 442 29 q 548 163 548 113 m 578 37 q 392 -22 488 -22 q 144 91 246 -22 q 49 349 49 202 q 133 600 49 500 q 372 703 222 703 q 564 636 492 703 q 647 684 573 684 l 1000 684 l 1000 624 l 768 624 q 717 615 729 624 q 698 569 698 605 l 698 397 l 945 397 l 945 330 l 698 330 l 698 113 q 721 64 698 74 q 777 58 735 58 l 1007 58 l 1007 0 l 658 0 q 578 37 592 0 "},"έ":{"x_min":119,"x_max":640,"ha":701,"o":"m 119 632 q 149 744 119 714 q 263 771 178 771 l 631 771 l 631 703 l 369 703 q 313 694 327 703 q 290 641 290 679 l 290 447 l 570 447 l 570 372 l 290 372 l 290 128 q 317 73 290 86 q 380 67 334 67 l 640 67 l 640 0 l 235 0 q 138 37 160 0 q 119 139 119 65 l 119 632 m 408 843 l 346 843 l 485 1075 l 585 1075 l 408 843 "},"±":{"x_min":199,"x_max":1131,"ha":1330,"o":"m 1131 124 l 1131 32 l 199 32 l 199 124 l 1131 124 m 712 920 l 712 652 l 1131 652 l 1131 560 l 712 560 l 712 292 l 620 292 l 620 560 l 199 560 l 199 652 l 620 652 l 620 920 l 712 920 "},"ì":{"x_min":25,"x_max":722.21875,"ha":753,"o":"m 722 0 l 643 0 l 418 540 l 204 0 l 25 0 l 327 767 l 194 1084 l 277 1084 l 722 0 "},"|":{"x_min":350,"x_max":449,"ha":798,"o":"m 449 1220 l 449 -376 l 350 -376 l 350 1220 l 449 1220 "},"ϋ":{"x_min":117,"x_max":690,"ha":794,"o":"m 289 771 l 289 271 q 457 78 289 78 q 589 148 551 78 q 614 305 614 198 l 614 771 l 690 771 l 690 252 q 619 50 690 122 q 421 -25 548 -25 q 117 272 117 -25 l 117 771 l 289 771 m 272 999 q 321 979 298 999 q 342 929 342 958 q 321 880 342 901 q 272 861 298 861 q 223 880 243 861 q 203 929 203 901 q 223 979 203 958 q 272 999 243 999 m 544 999 q 593 979 571 999 q 613 929 613 959 q 593 880 613 900 q 544 861 571 861 q 494 880 516 861 q 475 929 475 902 q 494 979 475 957 q 544 999 516 999 "},"q":{"x_min":56,"x_max":827,"ha":884,"o":"m 513 49 q 621 196 586 87 q 648 383 648 276 q 607 606 648 509 q 440 736 550 736 q 275 606 331 736 q 233 383 233 510 q 262 195 233 285 q 371 52 300 74 l 371 233 l 513 233 l 513 49 m 513 -22 l 513 -213 l 371 -213 l 371 -14 q 139 131 225 19 q 56 394 56 239 q 150 674 56 566 q 417 792 250 792 q 713 673 597 792 q 827 371 827 553 q 747 109 827 219 q 513 -22 660 -10 "},"b":{"x_min":119,"x_max":816,"ha":872,"o":"m 290 66 q 389 60 328 60 q 641 343 641 60 q 588 590 641 501 q 376 707 518 707 q 334 704 351 707 q 290 704 291 704 l 290 66 m 119 0 l 119 1257 l 290 1257 l 290 774 q 407 774 395 774 q 703 664 589 774 q 816 375 816 556 q 702 100 816 204 q 420 0 593 0 l 119 0 "},"ύ":{"x_min":117,"x_max":690,"ha":794,"o":"m 289 771 l 289 271 q 457 78 289 78 q 589 148 551 78 q 614 305 614 198 l 614 771 l 690 771 l 690 252 q 619 50 690 122 q 421 -25 548 -25 q 117 272 117 -25 l 117 771 l 289 771 m 476 843 l 415 843 l 554 1075 l 654 1075 l 476 843 "},"ή":{"x_min":119,"x_max":752,"ha":873,"o":"m 290 0 l 119 0 l 119 1042 l 290 1042 l 290 456 l 583 456 l 583 771 l 752 771 l 752 0 l 583 0 l 583 389 l 290 389 l 290 0 m 469 843 l 408 843 l 547 1075 l 646 1075 l 469 843 "},"®":{"x_min":43,"x_max":483,"ha":525,"o":"m 419 912 q 373 1023 419 977 q 262 1069 327 1069 q 151 1023 197 1069 q 106 912 106 977 q 151 801 106 846 q 262 754 198 754 q 374 799 328 754 q 419 912 419 846 m 262 1132 q 419 1068 355 1132 q 483 912 483 1005 q 417 756 483 817 q 260 693 353 693 q 105 755 169 693 q 43 912 43 819 q 106 1068 43 1005 q 262 1132 170 1132 "},"Ε":{"x_min":56,"x_max":699,"ha":753,"o":"m 56 0 l 56 1042 l 699 1042 l 699 964 l 249 964 l 249 582 l 667 582 l 667 504 l 249 504 l 249 78 l 699 78 l 699 0 l 56 0 "},"L":{"x_min":135,"x_max":779.390625,"ha":759,"o":"m 779 78 l 779 0 l 135 0 l 135 1042 l 328 1042 l 328 78 l 779 78 "},"σ":{"x_min":56,"x_max":873,"ha":884,"o":"m 440 32 q 607 159 550 32 q 648 383 648 257 q 607 607 648 509 q 440 736 550 736 q 275 606 331 736 q 233 383 233 511 q 275 161 233 256 q 440 32 331 32 m 873 771 l 873 703 l 681 703 q 827 373 827 590 q 732 91 827 200 q 464 -24 632 -24 q 169 95 286 -24 q 56 394 56 215 q 150 675 56 566 q 417 793 250 793 q 492 782 440 793 q 563 771 535 771 l 873 771 "},";":{"x_min":57.828125,"x_max":347,"ha":469,"o":"m 255 392 q 188 418 214 392 q 162 483 162 444 q 189 549 162 521 q 255 577 217 577 q 320 549 292 577 q 347 483 347 522 q 320 418 347 444 q 255 392 294 392 m 57 -296 l 155 31 q 185 115 175 99 q 254 163 211 163 q 308 143 286 163 q 331 90 331 122 q 276 -24 331 44 l 57 -296 "},"θ":{"x_min":42,"x_max":705,"ha":747,"o":"m 705 493 q 604 118 705 263 q 521 13 550 38 q 396 -25 474 -25 q 257 18 313 -25 q 158 130 218 50 q 42 521 42 286 q 140 914 42 773 q 224 1018 197 994 q 349 1059 275 1059 q 491 1015 435 1059 q 588 903 520 992 q 705 493 705 748 m 523 522 q 374 985 523 985 q 223 522 223 985 q 303 532 232 532 q 523 522 431 532 m 523 457 l 223 457 q 374 50 223 50 q 523 457 523 50 "}," ":{"x_min":0,"x_max":0,"ha":558},"Ο":{"x_min":58,"x_max":1123,"ha":1183,"o":"m 916 519 q 843 831 916 695 q 589 997 753 997 q 335 833 424 997 q 265 519 265 699 q 335 204 265 335 q 589 41 424 41 q 843 204 756 41 q 916 519 916 335 m 589 -27 q 209 132 362 -27 q 58 519 58 291 q 210 905 58 745 q 589 1064 360 1064 q 970 905 818 1064 q 1123 519 1123 745 q 970 131 1123 291 q 589 -27 818 -27 "},"À":{"x_min":34.71875,"x_max":708.328125,"ha":738,"o":"m 177 236 l 109 0 l 34 0 l 223 673 q 359 793 256 793 q 511 663 473 793 l 708 0 l 533 0 l 463 236 l 177 236 m 195 303 l 445 303 l 354 630 q 318 674 344 674 q 288 630 298 674 l 195 303 m 394 843 l 334 843 l 472 1075 l 573 1075 l 394 843 "},"Ώ":{"x_min":16.5,"x_max":1239,"ha":1278,"o":"m 1239 0 l 776 0 q 759 58 767 30 q 947 249 884 101 q 997 519 997 365 q 926 831 997 698 q 672 997 837 997 q 417 833 505 997 q 347 519 347 699 q 397 248 347 361 q 583 58 459 103 l 567 0 l 104 0 l 104 174 l 244 174 q 140 519 140 311 q 292 905 140 746 q 672 1064 444 1064 q 1052 904 898 1064 q 1203 519 1203 747 q 1100 174 1203 312 l 1239 174 l 1239 0 m 87 781 l 16 781 l 178 1053 l 296 1053 l 87 781 "},"+":{"x_min":199,"x_max":1131,"ha":1330,"o":"m 712 952 l 712 522 l 1131 522 l 1131 430 l 712 430 l 712 0 l 620 0 l 620 430 l 199 430 l 199 522 l 620 522 l 620 952 l 712 952 "},"Ϊ":{"x_min":21,"x_max":450,"ha":469,"o":"m 331 0 l 139 0 l 139 1042 l 331 1042 l 331 0 m 101 1248 q 160 1224 136 1248 q 184 1167 184 1200 q 160 1108 184 1135 q 101 1085 133 1085 q 44 1108 68 1085 q 21 1167 21 1132 q 44 1224 21 1202 q 101 1248 66 1248 m 368 1248 q 426 1224 402 1248 q 450 1167 450 1200 q 426 1108 450 1135 q 367 1085 399 1085 q 310 1108 334 1085 q 287 1167 287 1132 q 311 1224 287 1202 q 368 1248 333 1248 "},"½":{"x_min":-39.84375,"x_max":851.671875,"ha":811,"o":"m 310 0 l 310 504 l -39 1042 l 189 1042 l 451 614 l 733 1042 l 851 1042 l 503 532 l 503 0 l 310 0 m 313 1248 q 370 1224 347 1248 q 394 1167 394 1202 q 370 1108 394 1132 q 313 1085 346 1085 q 254 1108 278 1085 q 231 1167 231 1135 q 254 1224 231 1200 q 313 1248 276 1248 m 579 1248 q 636 1224 614 1248 q 660 1167 660 1200 q 636 1108 660 1135 q 579 1085 612 1085 q 521 1108 544 1085 q 497 1167 497 1135 q 521 1224 497 1200 q 579 1248 543 1248 "},"Ë":{"x_min":27.390625,"x_max":918.625,"ha":949,"o":"m 376 0 l 376 504 l 27 1042 l 256 1042 l 518 614 l 800 1042 l 918 1042 l 570 532 l 570 0 l 376 0 "},"'":{"x_min":74,"x_max":164,"ha":238,"o":"m 164 1117 l 164 686 l 74 686 l 74 1117 l 164 1117 "},"ð":{"x_min":56,"x_max":689,"ha":743,"o":"m 227 0 l 56 0 l 56 771 l 689 771 l 689 0 l 518 0 l 518 704 l 227 704 l 227 0 "},"Φ":{"x_min":40,"x_max":1183,"ha":1223,"o":"m 1183 593 q 1089 368 1183 447 q 852 294 1002 294 l 707 294 l 707 0 l 515 0 l 515 294 l 370 294 q 134 369 221 294 q 40 594 40 448 q 145 831 40 746 q 398 903 242 903 l 514 903 l 514 1042 l 707 1042 l 707 903 l 826 903 q 1078 829 984 903 q 1183 593 1183 749 m 990 582 q 916 782 990 723 q 707 838 849 838 l 707 358 l 731 358 q 990 582 990 358 m 517 358 l 517 838 l 491 838 q 233 582 233 838 q 315 401 233 454 q 517 358 380 358 "},"ı":{"x_min":0,"x_max":0,"ha":365},"ä":{"x_min":42,"x_max":812.78125,"ha":854,"o":"m 428 49 q 589 150 533 49 q 635 347 635 230 q 589 544 635 461 q 428 646 535 646 q 265 544 321 646 q 221 347 221 465 q 265 150 221 230 q 428 49 321 49 m 340 695 q 189 860 189 774 q 290 1017 189 967 q 489 1055 366 1055 q 642 1042 544 1055 l 642 986 q 500 999 519 999 q 345 912 345 999 q 390 832 345 865 q 476 786 397 826 q 812 338 812 616 q 698 81 812 170 q 423 0 593 0 q 157 100 269 0 q 42 357 42 204 q 117 594 42 500 q 340 695 197 695 "},"¹":{"x_min":139,"x_max":331,"ha":470,"o":"m 331 0 l 139 0 l 139 1042 l 331 1042 l 331 0 "},"£":{"x_min":56,"x_max":1120,"ha":1170,"o":"m 586 -27 q 206 132 358 -27 q 56 519 56 288 q 206 904 56 747 q 586 1064 357 1064 q 968 904 814 1064 q 1120 519 1120 748 q 967 134 1120 291 q 586 -27 813 -27 m 586 997 q 343 852 437 997 q 260 568 260 727 l 909 568 q 586 997 856 997 m 909 492 l 260 492 q 337 194 260 324 q 586 41 428 41 q 833 194 743 41 q 909 492 909 323 "},"W":{"x_min":-15.28125,"x_max":1262.5,"ha":1253,"o":"m 848 -26 l 629 532 l 416 -26 l -15 1042 l 188 1042 l 470 319 l 587 626 l 416 1042 l 619 1042 l 898 332 l 1161 1042 l 1262 1042 l 848 -26 "},"λ":{"x_min":25,"x_max":722.21875,"ha":753,"o":"m 722 0 l 643 0 l 418 540 l 204 0 l 25 0 l 327 767 l 194 1084 l 277 1084 l 722 0 "},"v":{"x_min":47.21875,"x_max":722.21875,"ha":750,"o":"m 650 771 l 722 771 l 538 148 q 490 31 516 69 q 384 -25 450 -25 q 279 30 318 -25 q 230 145 252 66 l 47 771 l 222 771 q 425 86 306 465 l 437 80 l 448 86 q 650 771 454 88 "},">":{"x_min":206,"x_max":1124,"ha":1330,"o":"m 1124 516 l 1124 434 l 206 58 l 206 159 l 985 475 l 206 793 l 206 891 l 1124 516 "},"τ":{"x_min":53,"x_max":550,"ha":604,"o":"m 217 0 l 217 703 l 53 703 l 53 771 l 550 771 l 550 703 l 386 703 l 386 0 l 217 0 "},"û":{"x_min":26,"x_max":389,"ha":411,"o":"m 119 771 l 290 771 l 290 0 l 119 0 l 119 771 m 95 999 q 144 979 121 999 q 165 929 165 958 q 144 880 165 901 q 95 861 121 861 q 46 880 66 861 q 26 929 26 901 q 46 979 26 958 q 95 999 66 999 m 319 999 q 369 979 347 999 q 389 929 389 957 q 369 880 389 902 q 319 861 347 861 q 270 880 292 861 q 251 929 251 902 q 270 979 251 957 q 319 999 292 999 "},"Ð":{"x_min":0,"x_max":797,"ha":797,"o":"m 0 299 l 0 399 l 797 399 l 797 299 l 0 299 "},"Λ":{"x_min":27.78125,"x_max":900,"ha":926,"o":"m 405 723 l 119 0 l 27 0 l 455 1062 l 900 0 l 694 0 l 405 723 "},"·":{"x_min":142,"x_max":328,"ha":470,"o":"m 235 435 q 169 462 197 435 q 142 528 142 490 q 169 594 142 566 q 234 621 196 621 q 300 594 273 621 q 328 528 328 566 q 300 462 328 490 q 235 435 272 435 "},"Υ":{"x_min":27.390625,"x_max":918.625,"ha":949,"o":"m 376 0 l 376 504 l 27 1042 l 256 1042 l 518 614 l 800 1042 l 918 1042 l 570 532 l 570 0 l 376 0 "},"r":{"x_min":119,"x_max":752.5625,"ha":803,"o":"m 290 0 l 119 0 l 119 771 l 428 771 q 722 558 722 771 q 554 376 722 398 l 752 0 l 548 0 l 365 385 q 546 539 546 385 q 370 707 546 707 l 290 707 l 290 0 "},"x":{"x_min":6.9375,"x_max":731.953125,"ha":728,"o":"m 106 0 l 13 0 l 288 359 l 6 771 l 206 771 l 391 495 l 601 771 l 686 771 l 434 434 l 731 0 l 531 0 l 329 295 l 106 0 "},"è":{"x_min":119,"x_max":752,"ha":873,"o":"m 290 0 l 119 0 l 119 1042 l 290 1042 l 290 456 l 583 456 l 583 771 l 752 771 l 752 0 l 583 0 l 583 389 l 290 389 l 290 0 "},"Ø":{"x_min":16.28125,"x_max":568,"ha":635,"o":"m 568 0 l 376 0 l 376 1042 l 568 1042 l 568 0 m 87 781 l 16 781 l 178 1053 l 296 1053 l 87 781 "},"÷":{"x_min":85,"x_max":605,"ha":672,"o":"m 103 14 l 103 78 q 262 56 190 56 q 438 174 438 56 q 346 299 438 244 q 175 397 303 326 q 85 558 85 464 q 178 738 85 678 q 383 788 257 788 q 538 774 428 788 l 538 708 q 380 724 424 724 q 286 700 325 724 q 239 621 239 674 q 333 504 239 561 l 510 397 q 605 226 605 323 q 504 43 605 102 q 290 -7 422 -7 q 103 14 217 -7 "},"μ":{"x_min":128,"x_max":904,"ha":1033,"o":"m 128 0 l 128 661 q 255 793 128 793 q 400 666 361 793 l 521 269 l 636 685 q 773 793 665 793 q 904 649 904 793 l 904 0 l 739 0 l 739 656 q 722 672 734 670 q 708 666 716 672 l 701 649 l 700 648 l 530 43 q 507 -8 523 31 q 473 -25 492 -25 q 415 29 432 -25 l 233 638 q 217 672 225 672 q 202 641 202 666 l 202 0 l 128 0 "},"h":{"x_min":119,"x_max":752,"ha":873,"o":"m 290 0 l 119 0 l 119 1257 l 290 1257 l 290 456 l 583 456 l 583 771 l 752 771 l 752 0 l 583 0 l 583 389 l 290 389 l 290 0 "},".":{"x_min":142,"x_max":328,"ha":470,"o":"m 235 -22 q 169 4 196 -22 q 142 69 142 32 q 169 136 142 108 q 235 164 197 164 q 301 136 275 164 q 328 69 328 107 q 300 4 328 32 q 235 -22 273 -22 "},"f":{"x_min":119,"x_max":469.15625,"ha":475,"o":"m 119 0 l 119 998 q 173 1204 119 1149 q 375 1257 223 1257 l 462 1257 l 462 1186 q 334 1173 357 1186 q 290 1063 290 1152 l 290 771 l 469 771 l 469 695 l 290 695 l 290 0 l 119 0 "},"“":{"x_min":199,"x_max":1082,"ha":1329,"o":"m 739 1135 l 864 818 l 979 1135 l 1082 1135 l 1082 718 l 1018 718 l 1018 1075 l 884 718 l 841 718 l 702 1075 l 702 718 l 638 718 l 638 1135 l 739 1135 m 541 1135 l 541 1082 l 408 1082 l 408 718 l 334 718 l 334 1082 l 199 1082 l 199 1135 l 541 1135 "},"A":{"x_min":-9.71875,"x_max":863.890625,"ha":857,"o":"m 218 343 l 520 343 l 368 723 l 218 343 m -9 0 l 418 1062 l 863 0 l 658 0 l 550 278 l 190 278 l 83 0 l -9 0 "},"O":{"x_min":58,"x_max":1123,"ha":1183,"o":"m 916 519 q 843 831 916 695 q 589 997 753 997 q 335 833 424 997 q 265 519 265 699 q 335 204 265 335 q 589 41 424 41 q 843 204 756 41 q 916 519 916 336 m 589 -27 q 209 132 362 -27 q 58 519 58 291 q 210 905 58 745 q 589 1064 363 1064 q 971 904 817 1064 q 1123 519 1123 748 q 970 132 1123 292 q 589 -27 814 -27 "},"π":{"x_min":56,"x_max":689,"ha":743,"o":"m 227 0 l 56 0 l 56 771 l 689 771 l 689 0 l 518 0 l 518 704 l 227 704 l 227 0 "},"3":{"x_min":0,"x_max":585.046875,"ha":618,"o":"m 11 0 l 328 416 q 385 536 385 491 q 248 603 385 603 l 68 603 l 341 964 l 0 964 l 0 1042 l 585 1042 l 297 666 q 379 666 337 666 q 567 523 567 666 q 494 351 567 444 l 229 0 l 11 0 "},"9":{"x_min":33,"x_max":702,"ha":738,"o":"m 222 723 q 252 579 222 636 q 370 506 289 506 q 503 605 460 506 q 538 782 538 679 q 508 925 538 866 q 395 1000 471 1000 q 256 902 302 1000 q 222 723 222 829 m 429 464 q 298 428 353 428 q 107 504 182 428 q 33 694 33 579 q 141 954 33 841 q 396 1064 246 1064 q 615 976 528 1064 q 702 756 702 887 q 622 486 702 655 l 395 0 l 213 0 l 429 464 "},"l":{"x_min":119,"x_max":423,"ha":434,"o":"m 119 1256 l 290 1256 l 290 127 q 370 65 290 65 l 396 65 q 423 66 409 66 l 423 0 l 235 0 q 138 37 160 0 q 119 138 119 65 l 119 1256 "},"4":{"x_min":21,"x_max":852,"ha":880,"o":"m 508 428 l 508 918 l 158 428 l 508 428 m 508 0 l 508 350 l 21 350 l 21 373 l 492 1042 l 675 1042 l 675 428 l 852 428 l 852 350 l 675 350 l 675 0 l 508 0 "},"ψ":{"x_min":56,"x_max":810,"ha":866,"o":"m 360 -26 q 196 5 262 -26 q 135 48 161 22 q 56 273 56 127 l 56 771 l 228 771 l 228 271 q 401 78 228 78 l 401 770 l 577 770 l 577 78 l 594 72 q 735 305 735 72 l 735 771 l 810 771 l 810 252 q 751 64 810 143 q 583 -22 688 -22 l 583 -213 q 572 -293 583 -263 q 561 -316 568 -306 q 462 -347 535 -347 l 275 -347 l 275 -280 l 298 -280 q 402 -208 402 -280 l 402 -26 l 360 -26 "},"Ü":{"x_min":119,"x_max":752,"ha":873,"o":"m 290 0 l 119 0 l 119 1042 l 290 1042 l 290 456 l 583 456 l 583 771 l 752 771 l 752 0 l 583 0 l 583 389 l 290 389 l 290 0 m 469 843 l 408 843 l 547 1075 l 646 1075 l 469 843 "},"à":{"x_min":117,"x_max":690,"ha":794,"o":"m 289 771 l 289 271 q 457 78 289 78 q 589 148 551 78 q 614 305 614 198 l 614 771 l 690 771 l 690 252 q 619 50 690 122 q 421 -25 548 -25 q 117 272 117 -25 l 117 771 l 289 771 m 476 843 l 415 843 l 554 1075 l 654 1075 l 476 843 "},"ó":{"x_min":56,"x_max":873,"ha":884,"o":"m 440 32 q 607 159 550 32 q 648 383 648 257 q 607 607 648 509 q 440 736 550 736 q 275 606 331 736 q 233 383 233 511 q 275 161 233 256 q 440 32 331 32 m 873 771 l 873 703 l 681 703 q 827 373 827 590 q 732 91 827 200 q 464 -24 632 -24 q 169 95 286 -24 q 56 394 56 215 q 150 675 56 566 q 417 793 250 793 q 492 782 440 793 q 563 771 535 771 l 873 771 "},"η":{"x_min":119,"x_max":752,"ha":873,"o":"m 290 0 l 119 0 l 119 1042 l 290 1042 l 290 456 l 583 456 l 583 771 l 752 771 l 752 0 l 583 0 l 583 389 l 290 389 l 290 0 "}}}
